<mxfile host="Electron" modified="2023-09-14T05:54:20.757Z" agent="Mozilla/5.0 (Windows NT 10.0; Win64; x64) AppleWebKit/537.36 (KHTML, like Gecko) draw.io/21.6.5 Chrome/114.0.5735.243 Electron/25.3.1 Safari/537.36" etag="Z3IC8ZiyVtyQ0WT54jIZ" version="21.6.5" type="device">
  <diagram name="Page-1" id="tEE6JgLlLl3hHynmT8lu">
    <mxGraphModel dx="1036" dy="606" grid="1" gridSize="10" guides="1" tooltips="1" connect="1" arrows="1" fold="1" page="1" pageScale="1" pageWidth="827" pageHeight="1169" math="0" shadow="0">
      <root>
        <mxCell id="0" />
        <mxCell id="1" parent="0" />
        <mxCell id="2a4qhD6RezWNujcGMCr_-1" value="" style="rounded=0;whiteSpace=wrap;html=1;dashed=1;dashPattern=12 12;fillColor=#f9f7ed;strokeColor=#36393d;" vertex="1" parent="1">
          <mxGeometry x="310" y="41" width="610" height="290" as="geometry" />
        </mxCell>
        <mxCell id="2a4qhD6RezWNujcGMCr_-2" value="&lt;b&gt;SocialSharing- Service&lt;/b&gt;&lt;br&gt;&lt;br&gt;Share trip details on various social media platform" style="rounded=1;whiteSpace=wrap;html=1;fillColor=#dae8fc;strokeColor=#6c8ebf;fontStyle=0" vertex="1" parent="1">
          <mxGeometry x="461" y="115" width="150" height="140" as="geometry" />
        </mxCell>
        <mxCell id="2a4qhD6RezWNujcGMCr_-3" value="Database" style="shape=datastore;whiteSpace=wrap;html=1;fillColor=#dae8fc;strokeColor=#6c8ebf;" vertex="1" parent="1">
          <mxGeometry x="794" y="143" width="100" height="97" as="geometry" />
        </mxCell>
        <mxCell id="2a4qhD6RezWNujcGMCr_-7" value="" style="line;strokeWidth=2;html=1;dashed=1;" vertex="1" parent="1">
          <mxGeometry x="390" y="293" width="348" height="10" as="geometry" />
        </mxCell>
        <mxCell id="2a4qhD6RezWNujcGMCr_-8" value="" style="endArrow=classic;html=1;rounded=0;entryX=0.5;entryY=0;entryDx=0;entryDy=0;arcSize=20;dashed=1;" edge="1" parent="1">
          <mxGeometry width="50" height="50" relative="1" as="geometry">
            <mxPoint x="391" y="296" as="sourcePoint" />
            <mxPoint x="390.5" y="350" as="targetPoint" />
          </mxGeometry>
        </mxCell>
        <mxCell id="2a4qhD6RezWNujcGMCr_-9" value="" style="endArrow=classic;html=1;rounded=0;entryX=0.5;entryY=0;entryDx=0;entryDy=0;arcSize=20;dashed=1;" edge="1" parent="1">
          <mxGeometry width="50" height="50" relative="1" as="geometry">
            <mxPoint x="556" y="298" as="sourcePoint" />
            <mxPoint x="556" y="352" as="targetPoint" />
          </mxGeometry>
        </mxCell>
        <mxCell id="2a4qhD6RezWNujcGMCr_-10" value="" style="endArrow=classic;html=1;rounded=0;entryX=0.5;entryY=0;entryDx=0;entryDy=0;arcSize=20;dashed=1;" edge="1" parent="1">
          <mxGeometry width="50" height="50" relative="1" as="geometry">
            <mxPoint x="737" y="298" as="sourcePoint" />
            <mxPoint x="737" y="352" as="targetPoint" />
          </mxGeometry>
        </mxCell>
        <mxCell id="2a4qhD6RezWNujcGMCr_-11" value="" style="endArrow=classic;html=1;rounded=0;entryX=0.028;entryY=0.396;entryDx=0;entryDy=0;entryPerimeter=0;" edge="1" parent="1" target="2a4qhD6RezWNujcGMCr_-3">
          <mxGeometry width="50" height="50" relative="1" as="geometry">
            <mxPoint x="611" y="180" as="sourcePoint" />
            <mxPoint x="661" y="130" as="targetPoint" />
          </mxGeometry>
        </mxCell>
        <mxCell id="2a4qhD6RezWNujcGMCr_-12" value="" style="endArrow=none;html=1;rounded=0;endFill=0;dashed=1;" edge="1" parent="1" target="2a4qhD6RezWNujcGMCr_-2">
          <mxGeometry width="50" height="50" relative="1" as="geometry">
            <mxPoint x="534" y="297" as="sourcePoint" />
            <mxPoint x="584" y="247" as="targetPoint" />
          </mxGeometry>
        </mxCell>
        <mxCell id="2a4qhD6RezWNujcGMCr_-13" value="&lt;b&gt;Service&lt;/b&gt;&lt;br&gt;&lt;br&gt;RESTAPI" style="rounded=1;whiteSpace=wrap;html=1;fillColor=#dae8fc;strokeColor=#6c8ebf;fontStyle=0" vertex="1" parent="1">
          <mxGeometry x="50" y="70" width="150" height="140" as="geometry" />
        </mxCell>
        <mxCell id="2a4qhD6RezWNujcGMCr_-14" value="Synchronous" style="endArrow=classic;html=1;rounded=0;fontStyle=1" edge="1" parent="1">
          <mxGeometry width="50" height="50" relative="1" as="geometry">
            <mxPoint x="50" y="270" as="sourcePoint" />
            <mxPoint x="200" y="270" as="targetPoint" />
          </mxGeometry>
        </mxCell>
        <mxCell id="2a4qhD6RezWNujcGMCr_-15" value="Legend" style="text;html=1;strokeColor=none;fillColor=none;align=center;verticalAlign=middle;whiteSpace=wrap;rounded=0;fontStyle=1" vertex="1" parent="1">
          <mxGeometry x="40" y="11" width="60" height="30" as="geometry" />
        </mxCell>
        <mxCell id="2a4qhD6RezWNujcGMCr_-17" value="Asynchronous" style="endArrow=classic;html=1;rounded=0;dashed=1;fontStyle=1" edge="1" parent="1">
          <mxGeometry width="50" height="50" relative="1" as="geometry">
            <mxPoint x="50.00033707865168" y="320" as="sourcePoint" />
            <mxPoint x="200" y="320" as="targetPoint" />
          </mxGeometry>
        </mxCell>
        <mxCell id="2a4qhD6RezWNujcGMCr_-18" value="" style="dashed=0;outlineConnect=0;html=1;align=center;labelPosition=center;verticalLabelPosition=bottom;verticalAlign=top;shape=mxgraph.webicons.facebook;fillColor=#6294E4;gradientColor=#1A2665" vertex="1" parent="1">
          <mxGeometry x="530" y="352" width="61.4" height="58" as="geometry" />
        </mxCell>
        <mxCell id="2a4qhD6RezWNujcGMCr_-19" value="" style="dashed=0;outlineConnect=0;html=1;align=center;labelPosition=center;verticalLabelPosition=bottom;verticalAlign=top;shape=mxgraph.webicons.twitter;fillColor=#49EAF7;gradientColor=#137BD0" vertex="1" parent="1">
          <mxGeometry x="360" y="350" width="60" height="60" as="geometry" />
        </mxCell>
        <mxCell id="2a4qhD6RezWNujcGMCr_-20" value="" style="shape=image;verticalLabelPosition=bottom;labelBackgroundColor=default;verticalAlign=top;aspect=fixed;imageAspect=0;image=data:image/png,iVBORw0KGgoAAAANSUhEUgAAALoAAAC6CAYAAAAZDlfxAAAgAElEQVR4nNS9abAlyXXf98ullru8+7bu1z0zmBUzA8yA2LjAoAQGKQYl0xRJ22SQYpAKibAZkimFFVSEZX+wZX+xKXkL2VY45LAlhWguYW6mSJlUQFzERVxAgiCAATDE7Fvvy1vuVktmHn/Iqrp1X3e/O2QDQSo7qu99VXWrsqr+efJ//udklhIR4T7KtAZjIVVgASrAASzAHOHcATarwM6BJQCBEYEJSIIRmB5CdQypB7WE22/Cmy8tuH3tmPHvPcByAfMpLBcVwRlwiuA14kHLEiWCiECIn+IDKsTLSiRpahrQStACIGilgIBBoYRumyLE6wCUgAqgFKjmGEYJSuJ3BVhlm30DSik00n1XgA6+OSfo5igKMM13i4/ngXh+ASO98+vQ1RMV0MRztNdkvIrnkgBwR/0SAgqFVjrWT2u0jt9RCp/6M5+vswtIFCa32KGFUQLDBHID1iBPHqMGBtlOUOdyOBjAuRS2gQHUT1zGK00gAyyanIwE5QEPlFAHx/VMY3JNBmwBtgTEscwN3tfYOpBrG8GmWC1vs6j7BTq8iIRHmJ9kaA35pEIxJTChWCaMBstYoxooU8KxZnYNbl+OAL/26/Dqyzd5+fnXmd4oSP2YrWSXyWCXYbbFsr5NcB7vhVArQKODgRCvcmekexdD85BBNZeVKQOEBjQtmCU+6DOA3h0nSLynSqEloLQ0wIzAssp2wDJKQQP02JDA+hWQNKp3rLjO4uI6aYAOmNA7v/ar/VVAA/GKG9AH1Z1fA0o1Da35nkrTuNTqs//d6/rMp1vXNaIFUYLXAWccXntEBYKCB6caEAIKrwM+9YQk4IyAgezff5js3BCe3IKnBvAwsOcp8jmFXuBVTp6OAEVxcsSgUgy398Aq5tGSob2QiMIqHbEkgihAr65lU9kI9BDCmQeY33yR8WQLlU+AnKUzzN0Sny6x2rHvLyAzuPUKHL8MN74Alz4lvPKpG1x+7RYX3QVAk9mc7UFOaqFcwKwUFhTUymGtJTEWY0wDEB3BpkDqw8aSqu7TNN+VUiQN8CBaO1gBXUvorKxWghHiOrUCHs3tiRY49grxGPGYSWP/NY0VF2n2a4FeN8dvzsMK5ABpe7zGkrdWXQkNcJuGsmbNV/U2Xprj9kCuVFe//C5mr//IRbkzn2+md4EAeAIewRHweHw8TvpwPH8QlHfo4BFxsWdD0GhgyWJ0wvLBAt6bkn9ol9FXnIdHt+AJWFQnLPyUnfEQi4FCWAaDGo4J4kiVwaLgNFK/mBZ9E9B1pSED1BUAPHuEkEXLx5RrPz/hledLPvUbl3j1D+aUV3IG7hwjtsm0xu5WlGVBWZb4UJNoQ5Yl5HlOmlmOryhSm5CmYDWEABJ87KKVgqqIF9KCXKk14JtQsW7tiA+hseitlTVEy22ksZrtXZHG0jfgWR2jbTy2Z20bi95SDcDKCkh9kLdAtcqtQC2NNe+dX2m/+m0f5Cr2Utqru4I81klIWfV4d31+6mzqQhh0jXxVqYbPSeAmJRqFFYUNmgRFEq8g/lwDoaRmjqPAYfD7KeHimLCdkX/VdSbf+pXwVZpZtuDYH3NusENGwvR4wXAybgxI08u1Fly1j0fellW/b+qyAJwDN6/YGzlQFdwe87lfVjz3m4FP/vALKD/EhF0SdkgavisBfChZkJFmkGWRfgEEgdoHnKvYmoExmsQoRDzBVxAcWoM1ipRh1823j1RJjwNLHR8MEeAtAHRnoSP41qiLrIxFy/VbcGmkow5Kehy9Z9FX1h0MVdP7qK5+fcCbthH2rLnpUTBtAjTnbBtZ2+AArG9oSB/kTUNWAknzeE9Tlw4ccjbQSy1dr6aCR0L0GaSpU2p6d14AUSANxQCu7DiG3rJdW6hMi3xKHAsC450Tbj7gkK/f5+A/eAz7vowycxQDj00zRk2vWrkaFzxJkmCNRRFplbW2q+tZgL9voL9VXuZ8tk8mGVyHL/zqnD/4uRmf/5WUm1eHPJpkeAEfoAzR/1B5STpyZLkQrozROt4j50oET5IqrNYoJeRJ2+WD4FHBo7RgFGijUGUDtAaQiHTfRYRc664bN6xTl77l1Uoaaxow9KxqC/SW03dUY526tEA/TS0S6q7+8VN1PUTc7prjrQDecnXdOaN3grw9nnGn68ep+q2AfgfIlSL4s4Fe95zViHnpjICIYPwAATxCrcAh1EoREAKQ6RxT19hQk+JICGAtDFPILcvrBcEGTvLbTHcOOfjaB9j5rvfDVxuubsFF09w8BYuqxFqL0QYNVGVJkiRr13evcv/URTQEOHkx8Ns/MeVX/++KK69mHDDhiXPwyk1I02ixddIA2hcINSBk85o0TbEKgvcYFNYoVBCqqiIko+bmRlBqozBKx3VBSPTqoRNkjXIAZJjOorf0JFrIaKFbZ9T0gGTpUZce0PvOaEuHTA/oURlZUQgNGFWt0ZUVDYqlVV1aq97n6hCB3oL8jh5FKYxT3fljw2Dt/MkGO+buIL7rpZQChWo9H2gUG4WJ99dnvb0bigOIbq4wWBQesQHRNY6Syi1wYYGj4tzwXdTLItZTFRzJZa5emPHAd3+A7b/yFOUjJ2TbW2AUtQQCglEGA03v0pz5foHuN7R4cxj4xM8v+MUfrnntd3NG9ZjzI7B1SbmYcrSzhYSK4CuMc+igGagBmR6TWZh5j7UG5QVXeUzQ5El0NusKhlnoGluiDUljsoID5xyDZN7dYugBpFU1vI0AkcYqxotu5LWAbVSJFuimcUZXdHRlEaOj2lKZRnXpxMim0TQW3XQWu2r2V139+kDvLP4p2tI1DtMHeetXrCy88StwGUXXCE1j4VNlokrRLs0/IH7T5sznm8oAiPRFImQJqO4oKi1iLxMk0qDgm94kUjhB4ZXGa03QCQZDKglaLIiB9CplqdEyItEjoAJ9neXeCf6C4vqPPMzBAxcZ7u9QiqeoKzKbkNsEXEDUXejYXYqSWDpS3+4cQgSYtdeoywuE1HJYV5R8gQfSLVL/KJwoPvY98MILwqW3rpEkGdZkLOYVIjAabuGDAVqJbsWDO3nPmx4ApOGYipaXZmHlNK6Uh9BWHtt07e22FU2JxYbQgaqjKaz4ciK+qYt0Tmnr6MXf09Wvlfda4CmlSEJDPaDjxR2YBTS+265RmMZ/6JwrW634eK+RtvXLuocXVvXrqTqJr7rfdNp9jxqFDX5aXwG6a5GznVnhbHnyTqnkVGlUn9DIhXFd0+9qRSIV8//mcZb/0ZBzex58ynwAN7jJOZaMq8ep5yXJOKPlnM4HrIXga7SJPc7ZVwEcXxmSWIv2sGMXPJo+RHr4EPNPKP7b7/xtPvtczbWrtwgBrMlIbEaeD8izIUliIh/mNMgjoNuHoqVRQmSlLqy04hXNWKkdrXPWdturbh+66+3OEde1Ttv6RfdBTteAmnO31nvNotJRnpZLd47rKZC3+6ruOqIjF3Xu0FxTXKebz7hvaOrSds0rXZzufNLFCk6XjjZ8MYoKZy9fpOO3qlF0dH30x8Rz62Jg/l/+CyZ/6fe49rkBvz+IdO+xYh+zPMBbKBKPbx5GsSybe6/RJlmdZpNFp7YEQKub2DSFWxPCc/Bffe/HkVsPo12KUoY0TUnsABGoKocEhbUJ0jhFnSpBQLfnArTTHchajtsHehpUZ/27YElDRQBMYzHbrnpFOxq6I31wrKwp0OjsjSKzplqo7hzar3qJzgHscWbbWvSGE/cpCoDuGiidGtRGQg0Kpau1+uleg4UYcY71bq9jvcfToXV2W6d6/fz3bdE3FJGzdfhNjaGVT6Ft2g2tauo9l2vs+gcpOOGlDyou/s8fZOtrh5SHMyZuzO0LJRYYNrKAX5aYfIAoqES6HnEj0CtrqZZH7KQKeT3n5icy/te//QmSwycZs0NhCtI0B6CuHXXlUcqgdeOkqVYHboEkHahQAVPbxoFjTdFoo5iJrFSX9ji6Q0LotreKw8oaN9SoRws6OtEDg22saBtG70dPAYxbWf0IZOlxftXp5J2EKKvv8frrFf9uzm9lxdFboHe0hRXQtUCqTaegxHq2jaats187/+kebJOzaTYC/WygtobsnmUD0LX2XaRTRAgKQq+nSrWm2NtDLzTp7HV4ooT//sspvn2X+TEUO0tSAhNSMmhaiEaUpgqQNcCxdzt5vxzxBvuDPeobY8rX4O/9p79Ldvsx3nGww+3rU4zJwUtsGLXDakOWWbSK+rqE+JQ72tJ2w41KoHt8uOWfnbTHyoKbjn+vW1wjstpPeg2hXd+G41Xk9AYVJcgGGPGcCqTJYwmAki5IsgrrN/SLgBbVPMAVfYiWujln2zB6/kgEp2BpG3u7XwNOte6Etut0C/JGUuzq0TTkjiH1HDGl1EZq/PbLJo69ib5s2N5rqEJU0lQDelFQpVvMbrzBVq4hy+EVD3/vVXKVwbcPUaT4qmDp5yR5hlYWRPA12BVzeTsW/Q3q2xdwnxnxP33f82TXH2PbDJgtpgwnnmoxWLvJxhiMMTjnKMuSYatzNhe9SjqK57NeNxVpASw9GrGSBFuL2+8ZICaCrS5mpXN3ofqedWgEss7yAiS0PU4D2F6vADRJU7JuRTsqE2KP0HMiW7WloxK4lWzYBZHUyq9oLHrcd92aw8oZ7XqY7v7FurRQ73536vx+g8XdTF3OVt1kw3Y2pBjoXsAqtDksrCjX1QAPpzWuusa14ZDB+BHKG1dJ3j/n3N/5Svi2i2Ciz1zLEm0NVVGjvGEwyJE2sHZ2LWFYHxCujvjPP/px9GtP8NjBgKMTR6iWpNkBlHUn/xljQHl8XeGdi6DE9CQ1iWpIY10RQYfGAinQIg01EHRrHXXzEEXiQ25ub8dZO2rTNBSRxqKvP8Q1RYK7AUOIFlqxpgq1/mdngVu9utm37wS3oepeQ1INIVcqxgbamGHL23XfEvccZXXqc3VO1uq32qNPl76IFn2Txd5EXTaVhvoJsXEGIvvQgCjFw0PNbDFlPHqEh1TCZ6+/hM4HvPP4HMX3/jrq4jeQffkeagAhSVhSYVJFulQxk7aR+TeqLhyO+d//i99m6/ZjPJ6cx9+E/Qwu7h9w41J8OMHXeFchwSHeQfAM8oRz+9urBKtGeYCVZWzzVXTXlUdr3n3vrFfL31ua0KKo2bdz0NaVnHb/07LbOshblYM1ebKtxwrI7Xp6QaN1kLdlrYHJKlDUnaMB9AqsUX3pKy+tWhMp0Cqk31EhCXc05H8by2ldH5p71NC9YvEa4+wCzLdws4ovsxd4drxF+aYwq9/Fx3/yX8PzJXgonadGsDolHWRrnZGSSsQnVzg6SdgfnoN6BmoMJfitm3zqm8/xmc84rly6zmSyQ2Zyjg6ngObc3hYnRUyquptGrYQYQFB3z/PQSiGsdOD2OGuqiK9jtE+ty46E6BSqziK3x181KADb3rxmP4NayYSAdr5zMk1zDttImkop6i5EH1YBJWIj1Si8hLta9HZdEmLObefsQie1ogKpXt2rrgH27l/eRhp7FKyjmEptpCYS2ojCKt7Q/9u0x1ahOUd0yNvzyCbZZqPqsmH7Bg6vpaLV1YNReAXo+KmUonYp4z/n4Sc/zFuTkvPTQKYGzMeQlrfQdidS5ApI2WJ/UnJyVDPZGgPHwIjP/kTO5z8nzKZT0jSNuQ4hkGcp4hTFwmPam9JvjdKjIwpWzlwzMIHWAq0sI/Skt17DaHS89oM2mQot0GT6tcZsZdmls9L9c0WLTkOT4m+yJOmOqQmNjymRe3pBWY0SQTXOZqQwASUKUZ5U6+662+r2rbtVetWjieliCPEhGqxeaf13Cxgp0Z1jLac+Eekzlz9CacEl9NrPHSU2gA0caCNFuj9V5vTxVbNKEet3HA4ZXx1Q/7Pn2ftbzzAfl2QVjLznJJswaqy6XQRIwxj0EWJhbvbJ8IQXb/KZ/2OfN994nfFwwjgf4GpPHQpymyJGUZcVKpNVMIYIpEgT2hq2+njk5dEa0XXHrbPQOqjRKvZ0dppMi84qKpQKiLTb4pXrpiWswN46s+121QG8D6g2aUq3YJeV7i1EJ0ZowdcEukSh8OimLnTb+/dBrR2vlS3bQFTXa/WcyY6Xy+qcJJrGnSGE/lNve6oN7HMVuaJVivpw6XSbzmKojkLE+7KpfBGCRhuPr3pVjv5He78UM+S1wMk/PmT/zzzD4iszUEdQpUwHQ0YNf7Gld2At7iRhPMk4AerpkOd/asnxvxFGdsgozTHKsigX+DqgtcXaBJ0ofBepVN1AhT6omtzNjtKsOYKN5ezrvxrViwSrBhSCVrrnqDZXrVYDIlrZrXN4m9JSF7WWnLV6kL5uU14VFkGphsI0jWoFxciZY6+zGgTR0qQ7dPpWdmzpSlhFX9v6tVTmdH5Of12bt3Q6JamfgXhW6cIM9COZKyMkoXes07/9Y/cY/YpuaggbuoRTdVMhKjOKeG0XreH2Scn25wfI//mH7Dz7bmb5grGyOGrapmpTW4GyzOb7bE0KRlzic79ywKd/7ICxn2P2d/DeI3UVE2l0dBhxFZlSVB0t6fNk1ixWf7vqLfEypbHcq99236W5GhVWjmojQa7063gW3aQaKVGNUtIA8hSHV2GdA0djEfV03ejntg38aEGk4a4SokIkUYlpo6DG9DLopM1zX6Uo2MaSrt2D5ti0TtcZQK/vkj2qlEI1WYSbsks7IK2BfPUbUatn0PL+2IO0IL9P6rGxvP3ja4npwFoaWAhob1ii2ffb8BMvIV+fo7/rAl4HtmcVDGIw0+5Yg9OgJhYRS1ps8+IPFyye32I3X1K7nHpZoIHBYIDVCeWywNU1yhisiTdklWpPT0KkURDWaUbLYdsgASI9Z7ZvRKSx7godWqWm6VybY9guYNTwaGLQRzWEvHNGu0Ou51MP0lbnjxl4uhlRhHjEgxLf9UJtb2Faa64UdeOM6Ya6eFpro9AhPpj2WWmE0PYKLUB185s+pYJunVLmDmve1r29njNLq1O3vespZ1REd85tC3RQXbbjfVv0+9U5ez6CyColW7rxB5rhYADLCo4Ljv7Z5zj/zY9xPK7Y0XM8DdCV15xUS2SUEwrDyc/llL82Zw9waUJd1HEArhJwAXQdFQcdkzZXrpR0qkMfuKq70NX2zoIreon8Lf1ZSWnx4lRHJyIjCh3oRASDbixz1KmNaixoA/a+itNGRNv7F3lv6BqkSGgEHd+pIi0fbLm/UQqriOdVCm91dzzanoAVHWgBvcoVj80RpaOFaq5V+pDogd4YG0PjIXSf0eTSHfesIpyiK9JPFouETCuF9LpZUXEJ0m8Y9zrBfVr0P2qP0KZNE43kUg3YE43nMD6Tjy+ofn6B+vYc8gJkAoDFG7yBJa+znz7G7/9z2L45guyYa2FAqoQkyyB4qqKgAlJrSJIEg2Ip9VpAqO2y+xHJPn/tW/NYVsBeJXtJx/FDR4kiLVmF84ngltD93SV2oUA3GruOOm2U7xoUdsPjhKIsukilaRyxKC2uLHHrskVqpOP5lMJoGIxHd15jzwxaCd25+kpQ89Qi+uPlrYr0PqvQ3ct2bECQ0DmMPX3qrkXWmtCdHJ2eR6M6a37mIf+I5YvjrEpjpHr2HQUcT8YMjm9jdM1RcGyXe7z1s1/gkW/5INVwhvEHAKhFEFHqCnnxADd+7iYf+/4h56aaaZ0TBm+gws6ZFejyO+g5Yx3woZnkZS2Rqq9j46ZoZbuu05gErTXee5wLMA6YpSGrMnISDLDMTpjlh8yTY56aPYNoTxkKluWUII7cJGQ2w6BZfOASySQjOzfEnk+wO5rhTsp4J2M4yjh55giTWJJBjhlkqCzBJwqnY3sYZff3oDYFcjZt3zjCqz6FyhAQ77sUjuRTKVQVFAV+XuBO5rhbJ5Q3j6hO5lx8YYflUcH8ZglHmrQcMQ7baIZAymy3pjiZYb0wxmKoqTjCUGMnOZzsE3NuHDQzBAQEpTSiDTYsNtygDSkEGxpKoQK5B2UyvM0xUnMze5Nz//AvMP2rF8gWt0jTAdYHR2bGMIXLLyyoqoK6PsAQECz3ynnubnQvqkjDodqkJljvxvsg77pcrTGmcQdF8L7G+8hNjVHk85y5n+EmDrM/xhcV5ZUF2+Uezw6e5q3iJqI99e6C4rEF9jFh/N4xDzx7gd2LCbz7QRgAIwgDqBonIBCo8OzcPgBrICFqiTrONpDIpiyPPyVFt7x69bfSCu09SjTTr0sRUmCMBRIPwxJGC6AMFEYjt2HwekHy0gzzwgn+D48oXnqL8tqM7DBwjnMw2MUHYekNSu8hvmB+smQruR0pFaoJ3ScYMSinEC+budV9FmV00/NKFA9KR5JowqtXyacXIE/BGqymJPFblFcdr3+iBL9EeAe5WVDrnOA3yT+92a96vHzVfUvTAFpnsx1IseLJKghaRwoS2jlYtMJay3x2xPbumKACN964jBXF/mQfVWleXb5O8fSSi89e4OEPX2D8PuAJqC5AtVVy00zZKQUShegY5SxZ4qg6mpXvPHbqeuKi27b6pX1O91/saerSEGwbA02hG+GkYt9qQIaQDOOlLnGkFzXZszl2kcPROczVBeHKCer2lOHH9zj8159k8flP8xDnGHIeCNwiQbb3kMUXqIFKNEFZEiWkpCTGoIJ6G7fv/lQdpUzDYx3g8aFi6C23/uB1zr/0FO6DGR6NTYzAHIrXFtx4TjO2DgukgwIJKV6dPVSq5dORmzbr1uTG9QjlGodt5GZxHnQgSRJ0YppMypjfsnXBsLg2ZYsdnuApjrjBq8UX2PqahGf+wlPw4SHbByOGDwJDEBvrkZNhJcE63cVIEgVDdtZubp26zujEAde9HkgpZFNAZkO53xyUTb+Xu21uuLYCtuu6UWYkivKNWND6Kbt+CdpAaiG3yIOW8sGUigNq9rjynpoH/tKfZ/e3r7P88T+g+OTz7HLAvt5leXyMYYRRCiNCGQQnNWiP1gaTqChgfAlLF70Vj1DiqciCYf7ZK5x/7gj54AGgsZoAMzj8nMNfThgnA4wGVE2oNMmmrmctn7yx6KrPw3scvln6DQKbUNdx3KTViiQ1OFfhfIlzMLw25kI+oSxLrqrX2P3qId/80Q9jvgGOdm4y3DbAjBmeugrYMmVst1GiybymzmkaTTxfFC10EyhppcCmnkqtZFDWqv+ntsipCp6qPZIknC5tfBTAMohrnCB1QAVPJkJO0/C/PGM6W8D7zrP13f8u5tenXP6h32Pway+xW6bAgyC2mbjIU6uCmiVLvQRdM2J89gXcZ0DJex/nUqGmVk0P4g3JpQo+eQv37XsMRjlWIfjLcOX3PYPCkKt9nJ3i64A4h0rPPpHpWfQ2dN+qJG3wBE4Fi7pR+JBlWaOGBBKrUTi8K/GuQmvNOXa55C/jPjTjqb/8EAffOoIHgMSxzTbqRIENJNYTEo9WisASjWbpS7QZr/R9RQy0AB6NQ7o85X74fu05/AlnBb6d83fZfz3duwX8kia41QpOgSYxKu53A41Bk1jILOQCupkAVAFFeYN0PGRGxaWR58K3bfHg13w9/MtrvPizv8H4N5YklWZQagaiSbQlSXNK4yk3Dpx+O2VDQ2gGz4OjRjB5CkXNThjAJy5R33qQgc1RTg7l9v+X8Ws/cEzysrBrH6DOXqOuR4iDxJ4N9DZBqY3wrbh4s72VAulLgC29UZjE4pxD64BNNHVdUJQLrNVMJmNe2X2ND33XBzj47hzeCbfsNYxKmLht9MxA3pzMQuGWBOuw2nbnj6P4VROB6YGmU9X685J0F9VJbH/CON9c1mTJ3h/9igsrMx6I2rcGMbq7D/3NcXhyfK5VqAhlQS6KUToASSiXjkoSbKY4+a8/R/GHNwmfPmTrrcC5MIkjgYxn4ecMNiUvbuwyzwZ6LYY01KAWHA01abJFejTHpprDwQn+l7+Oc48/ilUYFkdHHL+leJg4RlImc7zbI0kFCdWZJ2qDJF1gpbm/HXVph0rRgnzljGqEuqwQ8djMQvC4usaHinG2xd7uDns/8zjZTkm5BzrRDMMEVSrER6XkRjYjVQkajaQK7ROsyzurVA2jNTO6MXYKREMZNzMqm8q1uQdNJ7SiNP8WlTbHpgfyqapIlcauMN2IgQohkIVmcLlIpABtY9EalGLkBpANcBqO6ik6EdIkJUVxcjTjwt99D+6XLnH5hz5JdTxFjg2qzEElIBmY8kt6yVYbkBqU4JTHJoYah013OTl+k/ykgLJGuSBy5aPHvPTjDj9KGRUzQj3iBMWwmuKyJpvklMVuLbPvJuhp7g/ro2yUyQl1wHuPRZGYFKM0+KgR+2TBQVUzZsxNs8Ob/pB68CqPflTxzh+4iHnyAWA9qan/3QQDZcAXzYCEVEEewNagamYENJokCl8R5U6Bax7scLDOVxrOGM8QVqH6e5VNJv9+oy+bfq6SVXRSPF2qY/t3FhOboi6hGqW7iYhi0fWQgWnkbKHp+VzMmjQ6pnq06QHE59pPF7bzY46395m/WeB/8LcY/F+f55zfh/FFbiwKzgcLBBwlihqDBpuB1szEMaw3GNK3GXASABUQ1cSCm+eYfut74Ifeh61ncP3SVUK1i88cdV2T6rhfYnQc39CkRnYZiL0QfZdpeEoj7yLKsozpAo0M6aUgBL2aK3HgebFa8i52ueBvcX3vRS78nad511/bh1nVPef2RvdnTxURbnDMYDwiGdsOr5VTuMqhVMK2G8RWaKC2sFRQJVAm8RY+3PfMpHFUO6xozJ2+3B+t3G+vsOH3JwpaGUCtxWRjGc3jMZSKsYGkxU2cV4rDYRTmyrrEBhimGamxVFVguVwyzntzo5wCu1IKv71Nejxne38Ef/frcRcfZvYPfovB8Vucv/gEXC+oCUiakpoMypLKnQCWcTb84iX59p3a3vfjl19g+9b7sO4ILr94iWHYxtcOV5cMhwodHKlWhJ7F6rLzesk1rTXpjyHz1O8AACAASURBVJbvRtoDwS3jGxa06hzWVj5USnFiFaN0wqI6Jnn4Nu/66ATz11JO9mAyTM80mEopRialDiVlXaJJSZOExCpSG5N5irR1gEHqQO6WjEKFEQcKDscj2jnVNerUd5hvQFrYNEJmQ4h+k3h5WlU5XSaFbeRTaZ5FnLs8NLlAV0ejjpW1OfZaohNuFIxvHqHzlPFwQK11fF8DIKlGpwNwbi3pqw/yWEGF8hXLbWE+VOx9/1OMdYD/5wXmn3+BfPAoIYBr3kZibUqqLb6aU5aHJHfzkdbKpqage/ucvleB22+9xdYJWDuD6ZUp58gQ8RgRLHGSIYNgemMloZUHVw5lZ0Okpbo9q64UEhJoMg+11hgbgSQSw9T5fJtdt4DHjuBvXmD/PzmgTK9y6+Yt5NxjbJ+qet+aAwwLC8Y0IyQ8tS/xzlH7mroumQybLDyjsalF0tZHjxAb9saZGkw0BkHTJviP9Kbx42fPXbi53Ge+dkIbpACl8Gg8mtDk51xcuOZBeWKIvo4Tl7YppjsjILAop9RKMMaSeg1LRygqOB9TQE7Tl64soZzkHPtDchzFwR7D/+xdsJ9T/f1fwr95g0k+IcNSlQW1UZitAcY6qsUU2QT0DT2aktMgX09ay5YFuhSsnUJWpWyrLUpOyAwQHIkSTO3I0pajrxJr9BrvDKfoTC9jUASjRjjnCDiUNlER0eBCja9rHgoZh7tvsffXz7H/tw+YGhif7PLgWDjiBJiceaFu5rDbCWhYSsm0mGITGA+G5AOLJ2AwFLOKqjTkMsRUluqkZjkt2X6z0WFrjy89ofKE0uNrBx7S+wby2UVv4PBBzuawszY33Sp0lmAyg0o0OrEoA/WBoFONGiTIUCPDAXpkYJigMriuSgZmAHZARiAUc5K6xgxzyDJa0eSeE+6bmFZwoBR5ojlkytXBkL1vvMDu1jdx9Dc/RqgCuhySklD7wPTkmMR6BsMxfnmfDX39brECefwcVcCtBba4Brtmh6FYjAvkaYKvluTZCF15TL/zbXO1oYusdXJhl17dn+pBkZHi0FQoCA6pHU4LIcSZVy2v8fAPPIN8v+XYLMjmCWqcRWMzPYGtdaCfzs2enYvzczvxiFjGwwOGAiygvlWTvphQXC6ZvXwIbxWEY8N4mpIeetKTmlpiqNo7h6/AVw5XecRJ7HKrs/WxjZHLDUA2GwYXC2dvtz7KRloZdKIxiUZZg7YapTVheBOdWGRgCAODG2rCyKKGCTpN2Pu289gLKTymYKIh2+LasGZqagTDo9WqN74b2A9T2J1pkDGSlsxYMnElo4cnzL/7AXZ+9wPc+IVPEV65ygUeJxmfxxU3WVRTMixKNjhBGwNKerXPqVx7lDBxBq5MsUeXTthOJugiWtlsmHCyLMjSCXYhXbe+OjEQVhzdt9mL0lr11atQECH4OVZrjAp48ThZolAMcotJU25/xxWe/uuWxTYcXb3J7s4+XituH085n+7eAZTT6osyigTNKBjS2wZuAJ+Ha7/yKi/+9vN85JWnyedzxM+p8AgZJSNM8762OBG/imoANiay0c4+35/T4J5PYsP2TRZpU1DlbHmuNjXQjILyQnCCdJMCBYykeB1zfSrt8Ti8qhCr0dZQ/NRnWciCcNFw/mueYPc/fB8XvnZMfi7hDao1haX93ge7bf8LhkVtGDDgnImJNNf9gtEPfABJpyz+6Wepj+YksssgG2HcHF/N0Rt67I3ldENQK5BDfLLcWmCnN6ZkOiUGUR2JjmPtJjaJbwFTEeztAAklTX53c1zdTiB0OkOxeb6OKblKsVmCFw+uRFkYbY2ZTAZ84X/YxUvJcJ4xuPgIC64ydNc5v3XAoU7YudcI+KYkyxsMw4jwasGlX3yLk49dZ/LZIQ9dP+BC/UFmmaBtjrLbDMSjQ41RDkURtdfEIc18fV40QRSI7XIyheLM+7zJYm+y+FbOBrpsAHoizTucaOd58U2MopFJdR77ZIGsakNCCkoFWAoe50GAN6fMfvQVXv/J3yP7wA4Xv+l9vPfPPkvxkTuB3i9btXDVLAl5xoN+wKiGUhxGOx4qNFffCQff+ZUc3J5Q/sQLHM/fYMiYNB1BpTZ6KG+7rKku69RapgWq+D6R3/rpT7I3Pc+e3eewuEGWW6zVLGclSbICcHuMtTGXPXN/t7lJtki4laUMltfJsyU3wj6PuMe4+vhzjP75w5x7z/aao3O6vBAcTwcLFRzLAjdKyOqSoKCwGQc/nsDv1tz+5ZdRz8/ZqfJop1Wg0J6BbJyM7EtadFi9KAC4o3tdm6RThTv26+ZVuceYT9qGco/t7Uxja3p+v1fExdFjWq3eNKclKmVWE/7jR1B/8Qn0R1JICorqiOVoSKomjI5hmlYMs8aTaSVjEwcwz+sF43nK7R3N3q9eofxbv0L14gBdpIyGQrF4noR3nH3/ztwKfsN0HIvhIZMPfRk2VMT84cbJ7AYzS8xjaS12H8Cnj90P8Z/eR8QQlkfkoww3D+yYlKv56zz+Xc+wmGyOmj1dWy4f32BvK2c7zVlUAZeOmVyD4Y9+jtm/SijemhLeKBlXAxQJKIOyCmUENsUj/kTKXeSwe+jA63/fZX/ZsL1dtxYUa7Y0g75F9VPBGovfyJO////+Ks889yJb3/Ju+M4nqd9xkTEeuyipMo3XCtcMdWwO2h1/kOS4Hcu29xQXMvLv+Qpu/ne/xV45oQgerSb3nzS3gcMH76GqsWHhSQIkSoH4OPhXB3SIbLV723I/Z4VVS5NmRX+fdjxo3MEyYUmlE1L2CL6gfN8U/upjDHdczLG4l0cPUMK57SFLmZJLYGi2qb4A03/0Bls/ehN15Bk4TcKIVA1AZ3hqKqlRfypi+Pew2HcF5emH1usi7xgOd/q3d99+eoavtZ+q/rC50PtNiIOmgXdfyhlceoPi87eZ35hiv/f9JE8ZyD2uvI1JLzRR1ziGQAVwdYU2Bq3hENg9XuKf3CZ8zz7JLzxH9etHlH7EjjkHfoOx29AQNhh0VFDgPDpMa9Jg4jzjUpMARgWU92QYrDRBFIlTN7RL927JZtGnthmJi8ZwkKdM51NUOkZT8NB37DJ/uoLRvbl3u26WlqQmZTsdM/XA5wv033+e8h++SnnzYUZunxH7pIwRm1LrQBU8xguDsBox+Se19O44d4B87a0Rfcpy+tc9EHe/uVujuXN7UHLPJb4lcV2Sk8axFTwhOCbJI1jewe3rNcX/8mnUD/4u5SdmOG0Y5gk+BKoQDZaH+LYNpXB1TXCOBDgpFvhEc/wOzcFf/jLczpJhXVOb4du/f/cs4czFEtNNtD8pyYLGiqB8jdE+vikteFKiQ51I/OwvicRQSdQphIQYYLIIiUi3XlGhvMYEww1/i92v3WXrWx/kDS6BPRvkAGWumTkHMmbrhZTrP/g7mB+/yjn1NIf2ABhQYDlEOBJHgQcVXxCg3JdWA39bZQ14EK30aYCfBnl//SkQd9t4G9tlLaJ5unT3valPH+Qi8fUq1DdZjMZsbT3Jg8WEyY+9jP/ffofqd65SqS1U7Qm1o3R1d2ZrLWmWYYxlq4Kwt0UKJBTwTe9k8mcvMmJG6d3qXtzz1TFnL/2o710XUVAFbJiWpN6QolHisUYwWiHekaiM/giiNUezozKrLk/dsQ2EKYta2En3eCm7hPorH4HH4isOSxJMQ1vuBfaxCpT5gPIPwfyD19j96RpVH+B2EpLlkhlQ+IBDSE0c/mmDBmqQgFL3m6xyv6VPJeTuNOVe9EMFuhTKu4L81L5r69uHdW/VSkRI1Gou2/b3Ih5p5ny8bBXDYkaWbhHsBONmDH/sJcqh5sbWFg+9ewI6wQuUVYlSijxZ5R1RltitAeXNI7b3xlQPBdLveC/lr/8idnqE2sg9NmzeMN2GckBVo8PckYRomZU0c7aogJZo0XUznXH7EikjcYpjE+J6reIUFBa1RnNaKuPsMYFtcjfkwlcN4RvAJzUPLs9TcG8Qrh6IZnIdwj++zPRHb5HUT7IYnufa0Vvs12+RGc3YWHasYaIVafMawAqF/xJHNf9oZV3y6sodztRp4N5lWy8gcvftK0utmxm9tF7pF/15YoBePlHoNPgIds8D5yZk1BTLW8zCgkAGksIv3sT/j5+hvn4CdezdjUBdltSuRkSoqpJ5smAIDMwWOENAIV//MMtvfJgtjs+4X1+copWK1EVqF1WXboN02Yft1Mmml+jUfW8A3k7a2Vde+tPKYRYMBxdwoebRP/MoN87foEYzWoy7UMlZWvQxMP8nn2TwI68wqR/hdSbMKs1DmYVwjaSsyF1NXgfsskQXVZyUKE1Rk60vxb37Y5QeRegXFe7c5/T6NZoDd4D8ju3r5xItiBaCCt2nb/45cdzRi3DKgb16DTtQDPcGbAsoLEfZhOqm4ZEfucLLn/k85dWbMV1CG7TWWGubqUsMN/IKs4R0bLhVxBdr3XjIor7xaRTLt3HvNpQN1MeaFLTGpgzBVCRuxkAbFpUneGGcZlDNyU/Pj33qz8S33bGLc/E0IxaUSkA0w/KdwHNcft91+Javg7wirY9he4cciy0sizFoavJbM0i3KLYslZozqacc/OwDXPuYUN+YsmOPeTTMOVJQ2RxVXsQq6Cn7AKQoqGuo680h5rdzI99WOcXB25/3lR8RTltl1f6mp39Lb58Ocqd18mbDaorqRhbsTtd8yaZc8QOGcp6d2SVQ13jrawsu/7l9PvS930n9cHyrVB0UbgHhpRL3S2/Bz7yA+p1LDLRiPPNUFweU3KRICk62Ex65ngAZe9/7afS/eB83L97iXGqY62gORw4KaxlPd2AMRT3HTlKu4zlfDUne9Ti/9+UVX/XJiuLCea4v5lyYLsjwLIeClpxsaTcH7M7cCpVU5MsFtj/FF0QrLmcEcO5W2hmeWudnvTU4ytRz/skHGOxYlNLoxEffKZ6QLhV1OABrKcSRqxyKGn6rori0JAtRHy+C4HWsX6LSXoz2XpV7u0D9Y5b2hbO97r//Elq5i8W8mwXujGgzJfbZHL6/7m7Xv2ooN46mPLi1h58dUgwD+bd/Ge/4vqd5xwf2YBFIlGdZLClrTzKYsPPeDEbvhN0t+MABN37mOUZX58ymlj1R1LVHl4o4BNHgbtfMf+FznHvHu+GiZaw0Aw9+UWFGnsFgAICvanQa50LTqYKHtrj44ffAJ9+imE0xVX+WYXoTN31xnp/VCCrEt0S0OcpCHFqle7blXsXoJh+4Te5qs/wlZtURag6HSy5+1ZOwF+M3gkXpZsJlC0FcnN88ja8zny8KdgZj5EXH7V9+HfWmJ2UbdE4ZagKgMaA0hA08/EsM9NBNh9Heh25LXHsXK74q9+Dtb8dRbdf2Xna1yknvnX9yAU4OqTki/56vgB94N/NnbaOeaVQ5JzeQ5Sk1jjlC8qQl3dqBrx6QXrnN4b+5RHnzGNghQ2ELFwm59ozdEPVTz8NHnkAubjFUoGpYSs1AZzHTQMDUcfzuQOtoB/Zg6yPPIP/oElItGfmked189AF9XXH/KdBNXy8erYJghE4D7+vlGta08rst3T0+lZzf9ggzteDknIP3b8EYFIFSmscWYl6GUQ2rDzWiPeIDzOHWr90g+cMle+WEod4DkyHNW+9UkFXI+cyyWaI6e9lQ2hk529sqfeCDqNDs0nzqONwrLu36/rawtr45yepa7qqj03D2O5WYrWyfJVPSZ0fw0ae4/qzlFX+NwhVUOZQYlM7RkmKBBXOucYubFxYU79Fsf+cHMV95EU0FJokJdE4TrKfyFVvphK3npvCvXsNV4KoAwVMPVVcTCZAaS6YsYxJqAYZQvHsX9fguiQlMuvd9B7T3EGpCIxXf1xJCBLr2PiooBGyjf7d6eNTBw9mLcOZS2RrzxAieohlw7wjeENDkOFAO2yjyi6qkpGBvsAWvweJXDpksLWOGoCwSHEZBrhQSHH5DCusKJF+UkM/dj944eyvARl7dAjao0Cztd+l9D6e+n96vX4e+07lqANIFeXyTeBX1b2nyVsob15EHxui/8SHm71fMuM271ZDthUACIRuy9CnlVAgLxTZb7OsJY53hfQn/3jkGH3kHxtTEkJBhLJbSggpVM6eK4eWPfQZ5A0LtcWlNmcDSxQE8IoJOUgg6BnCUsDSgHt2Cd+8RjEOHOJK1pJm0Fg/J/U0eFe+QBwGtg0cH38wjLiQqSo26eadn+3a4ey3dAZsL6i8AYj17730ADsCrmtSDIQWIjqT41o1CGQhSM9QKPgOjTxvaoIiXgqqekYea3NfgXJxFS7mzly95cc0SmnP6uNAu0Flf1QNtfz2cAvFpSnN3kN9xjLX94vMcMEfevwt//iJHw5JdH0iKAUgaX3pMfPFslqckNiUJmlwS8mAZhQHVDqRffhGdAz6O4VUYanExxbleAgOWLx1ifucymU0oTfTTisKRKoUy4FNDO2orI1Lk7b0JPLXH0pRAgcexxGOUxiBEHeE+e+QggEc38/g3k/c3mng3WfZKPrzXgsRpjVW4c8EHvKrZfeYCVQZQYkWTdvMuBLC+0V1hkA+iFXFw+Jsvs/9mTkWNsxWOJciSxJfouiC4JSppCOGZy312fRuKaN8sNaI8ohyiK0S7uHRUhDVLv7Z+rReQu1CXPuh7IL+b7LjWCOIr4M2z29zcLhii2dXbECzOxrlbNGU0OPENByzrwMl8jitqwHKbOTy9y3A7B2qWTeOtfQ0IipplHjgvQ+Y//XEoocKRIuykw256b28My2aKby0KGxwWB+/cox60tY09PcaiCbi31WNvKhHsuj+Igha8/Xu5gZrEXXv/TuUt166E84a5LBFcdFJbOunieMa6rmmmF4nZZjVc/swrgMXbQMgE0kBi2pZaECgRy30D9f5LYN2itxa5b9Fho+N5r7pu0slbutKF7vu9qmfBLfInz0MmZAg4y9TAfGTxOMbUqDAnuAW1BHSmSccj9DABt+SEOVww5NsjSE2MfQRF7eOAFXDcCAvOJUNu/suPwyxev11U0S+v69UdMg3SQsAtF5jg4aFdzCgFnWHSFJ0lcQwwjsqV3C/1bGeNs8kyYJMBzntEXHxZrIq5yVjQ/jTy152ge00rLU04SP07BTwJw3yA9XBkFoz1FrbSkI04wrPnEg5Tz8AfMsreAX8A7/pNzWI4Y7C0sGhDS7qxcjaSn+WGubfjXT1zq2h3hwPZSSei0VJTDnKOtwKyOOH8rEaTASm3rGPoJgQ0YjWiLShDcArvajye89zE4yjVkiqtCFowZCR1hpWU1I8Aj6OgpMZRo4FEa7QB43PAUeu6s3DKa9KQR+Upc8zLEyoKdiX6OhBYJp6bA42ceB5Jx+zOUoIOsKWYJZE+bFOBS8Bqqixa0xTiOzkx+HSLlDoOgtrf4fbzr5PYEaSa5XIGDMDuYqooDz5h9uCFGdlDEwZDmC8qhoM4p/2wd19FK+xgHN+o8eGcxZOwfOV1BtUBowQW80OGDEmqmChyP89X5QGKWRwJ1bb+3uOP/4vvPXzWQd5amQ2psNkko3mNDGjdDFmD9nVrFgELVmucj1qqvNYSJ7l/q7zRnwwdruO+7aQQClTgZFCxVdQcLAFSUNswzqmUwxQVA+MhLBC3pAwVZqBIdlPYHsEg49q7t0l3EoYHQ3b2MshM7N6nDjf3zD73EtSCXgrm2DE4hvTYRctYSleXxFhEx5fpWB3TNNDgygIzyBjYPHYgiwKoSWrFjoat9EFmn30F9RffQ5gkhGXBAyqHFCoJGIRaPKJUlJfrAHVUO1SIE05Rw+LNS+yYEVNXggQGWQqFAVeRJxZqwfuAeesq2k8IBpJmgtOz0rBNlpKPRxiOAI1SPj73rlfc8Pw34UMFkIBFfKegQENJVA/oa/U77ew0Xu0ZZbA/jOm4zd+6SSZAHKEZnUkCpvELjMDl597kIia+/W5T0s/GsmmEUdt420G2fYkQJkjTKDUlhkICzKZsizQu9cuwN0S9c0L67C7u2W3qd40xj43R53IuaCAlmrQMmrgaqYvLMDmI/foR8FqJf/GQ2ReOKF49pL69RP3+EXoWyAvLhBGkA9CesrrNYbjFhHMQMpRYyroiI0AcdsxWrYCcN3/jBR75G89wclEzUlOypQJvCKMBpUCmEgwhTm1ihGB9fP+r1mwxgutw+dJ1nhw8g5mdIN4xHGVQBGrmjNMJ1EscwvQLr5NNH6HeSckS3YuE3aOMUib7OxiugDaAj3k5YZ05/LFLEIhqom8sd7SeqgkARd53lxD0WgAENr2aI9lPIV+xVSs6zu4V4rqEQGVB14BOwMPipStobZA6vtf6vsom5aWrf+twBOjPib6oWdqc6fYWucqY3J6iwi1kXCOPDnnlu97J+IEddp46IH18iL4AyxQKahxLHpABohw1NQVLHI5EJaTp/8/bmwbZdl33fb89nOEOfXt4/WY8jA8AJ9EUKRE0RTMSqIiRaCkaPWiIprJilRMpVZHLGZQquRy7HFclZccfzFLikhMrUURqsghqFjUxoARSlACCAwgQJIaHN/fr7juec/aQD3ufc8+93a9vAw/KBk71fefee+4Z1l57rf9a679yVCqZsINOMmQnQ57tkLzrDH1zhv6UsGp/fA/7mRtUH7vE9Ikdkukumgyd52wN7iHdCTR0k8mUqbN4NHmegbf4okDg6Dw7JfvT6/QfvMA0VzDZAwYUgRw6EJl5AuznSmZpaM0ikQxmEj71EtprsJ4+khKDrkKCVklBLwqoRTL5yg0GU8943ZN6VpO0poru1noALqWPwZ36iXjEyhX96InkvQVv0XhDaBDrIUKKAC5mKTa/SkvA21CXP1rQ1WYXEqiw4DxKqMj5EtaRzDtuCehbsFpBCdnOBJIcV4xXK+RVY1XNaD0RmlB+bbqEcYsuWdrhlBGwfxXvL7F3wSD/3lvo/mdv5uIJgqaOMS9rHbooGeDRSuFnJUiP1tBX3di7NDYCc5ZB2Q+aLJEhfCgEVlhs5vDKkn5Hjnr0AdR7zjL7vcvsfOwl/Od26Q0N/VkKiQGf0JUJidCUWjBSFu8KnCrIbcK9kz7lL3yO/lcNsG9b45W1m5xIBAUONbV4FYg6pxTsZ+BESkIaeqT+6Zjrj/0lG71N2A9Uck47xHSGVd0Q3DMVDoeXmuzmDFlKKgGmMiTJ0dHNqTR0NnpMKEm9wTqLiu1GjtMvY6XWbzS6swQmLddwLAZIJthHoUK+LeBu/hlgFe+I2tS4DEpm4CRKzi/cE5a2sYBNAgkmBWxOJUTOqeMEbY4cK7H0OFHbGHfLOd08f57RpSd5jufonzrBmR9/hPW/ex+Th+E5Rjw8AlxIR7BG4T1okZPE3uq2E4lpoTEDRasW0SpwIsyv0JnaonRg/0VLiuoG5XqH6tEN9F9/gK3veQDxG5eZ/uJTXP/Ms1SVZkCXvlgj0V1KbxiWU5S29NYSzGhGZiST33yetYc32Tr5dnbPb2LI2HQwVYIEAWiSxNMRKSAZzIBXSqpfepLiD79ET24BuyA7mMyTG4uUSVCGRRGsaSnpTwSMLZCCWw0PFjg6611KQmcO5wypmjOl3enzl9H01IEeoR2B8w2k5b0N9vRCsKIW+tZSf9TYzDAqHl2EpC4IFpCLL6pwRoEw6NqQXgm2KkO2+h0HfVZE1xZWp6iWRd0W1/HipV/j/MMPcfH7vgc+cIrRm2A/L0iouGtmeaafk6LIUXQR9ABtgBlgwA5iiZkDV4H3DiGj8CvJqKXwBBJJEDwtHcpD5k6jMOxxC9Xpob46p3f/Wfpv69L/iwtc/ujzjL4yhCtj+hV0kiSUEhpLL1U4XWKNosMa8pdegtzT/1sX0G88BxXM1qJAGYl2ir6UyBseHn8F/uxFhh99mvM3JZPMASn4iply9FHRtfGBwgSN84KsELA7wdGNzujRgmqRMOjjYuGxdzb0JfIee5yKghWmjY+MsTpg3u0wcxtxcUtCXh+8dfKrbKh+GiOf7XTV1p/aD/Ch3U2xs8dW6ShdSUcqVqeVrRqrwsj18eOEXkBe4O7vfS98412U/8mA0VmDtnucmwiQPUj6PBzZagEqZbCJw2iH0GE1Sn0v3i4Ro3Ix+Uta8BVbExfNHgUqCZpM6uYe2RK019ylLbBDZQuGvRz3gU34wJs4e+pNVI89wfB3v4ifVUjVYVNmmHIf9kpkX7OfKAb5ffiXv8Dlf/l5EvlV+Pdd5OSp8wzfso4oLdlkSlmWmIlDPb1L+aEnGf7aX9CddBD6PspiQk/3wNyk8J7geDl86oECITKsd1A5GE3CM5er9bFHQLczTwZsnonEt83l1zyCcta+4YOI6aEuAP5C1rljEce8XQja03CT1Bi89xZjDZaK6i5PZ9eQb3SZ6ZIME5Lsuj5QGPsBd09HTDoJHTZIr2gmxT7dVDIuDT25im11xWWKo/OZp+VlelsX4ZZl5A39tMdu+SI3Tk64+Lffxe4/OYdSgiSZMTAaKTdxOaGPpy1Jex7rLMb5SMGXgNFhqyxWz0LSmorZlqKGM8MUlkmgtbYejC9BEsLmERYjTzHe40yC9yfw3of3nUCIiud+LGH73Q+wdbqEn/8yo9klXlrvs9Xtc/qWg5Fl0OtD8TIGODu7i/KfXcb8Lztw8W7Wv29ALwl9KZNL+8yeucTel67hdyasyW06ao2ZH9NRULoxUuScHdXJx2P6LgM8hRix1s2ZXh/RuQU9oBAzsgZbno920t/2dMr+I6fZwjGrxnQTjS1HjNKEddfBmRV8JStmkk8ESIE+6GAuoyrLUbyl8PNCTWNtz7vmszJNQMkD59O+2Po9AUFLxDbgAea8026fR2uE3uYFpjtXsckA3+1wfe/LbPVh44f+Bu5HHiJJxkgpm5K0pmNd/DelQilQgWOJMVAFdjvINd14fXVuXt0/Ouh7RxIhe6vBkgYrgtCRx1aWDd26Ty1KuHo7NRoyuHgC6m7IrgAAIABJREFUfuo9jM9sMP3w07zxSxUYyyQ2mswpKIUDKUnSjKQSIcT/yg6X/ukn6KYZHdkhMxJZWDamkNBBopmpcP/qqrMGVhYhoa/u7B2qzHxwTq1rKtRWDhEUZLuuINQdu4MI32sYdaRfz0PWsCj0yz9wWGTUxeWmbd/Xnw2mT9LNmyw00bocD8Fel8yDCQ4wVchFdjouXnfWGsSvMl12PVfzlO664tRozNq5FPeT74AfewCbQarTpubyMOrkYuLRWgQH0kPlPF5aXBrQnrIMHfeUb1l8UuBkaECbpYCIBS/O4bxACUlHBhJQSRBwpdQBQQcYGCCH8cMw/e/fQvfuDP7VU/DZXZTOscJjpMNIQKeYJFAN6qnD7gx5iHuYpyt4Iv0UTQi9ac1zMG3BC3AtrnxpPaKyUNkAWR5H0CUgZURYHPhg5AYdZ45zhCOHw8aAUZ3z27qAA1p74b3lIE5by7fyDIQJmGg3p7VuHH4yQs7ZvaoSX1XhC+2Emtc8VuGTns0kwe9dg/M9+Mn3MPsvz7EDnL32CvLk2aO/vSYaEEpV0DPQ8zI4HEoy9QVaKhJdE4XUQ4B3zKpbKJWQqBQtdKSwdkGte4EfzCfqYbQVk40eYnSLShvIN8h+6EFIEvjZp+FPL9FJOnSspYuikJLKS5wErTKkNQQjwwAljnDOJBIrHNY7dNHmhqzXo3jBgIuRW+lBOI8vDVSGmqJ15ZAemQQy15AtFQKYQSLuHHWr6ct1QDWWBfsQjb6QYtrS/L6l0RvBrDW6DS2qo2O/3APTQVQgcb8BqhJXTsH7EDS6Q9NlVceI2SnF+tWXYFMz+a/fhfzxc2gc23tXKU716Sx9fbmQ24gZpbNQObQPXfaEEDgHzjroBr5erEO4CuEEXqiQpYikTHMEQcxgFq/bo3ONFhLnQhj90G4ThDSUrN9lbbpLcfMlyhPnsT90L1Zrbu1eZf3ze1AmSDGgk3YoKsuMio4SSKe45XfDSitCRFwIi7A+xswcmQ+OebBQ28ouvLZxFVCAMA5KE5pjxSDzyiFF1OjB7A2MdkHsaUXsX+uoQRU9jwweAh3eNsuubcMLFuxosajR0bK54Maq8cRsu7rnZbhM6cKNMlVB0H6Co9eCY4wVSqW8+kWmA8Hmf/NeOv/5g+zg2bx2Hbm2xjUEWezWsdy/pxZ4Od6jEoIqS3C6iyRv0p6th5MVgWJmVFGNSpzxQYNnWehWsdELpqj0yETg0pDmOo1TfKNyC4K9zIGTjKeU/RQ6XbqToE33kgz5/rtY019P9Y9+j72Xhmx4AT4jEZ6hNaHWwBvWU4WU0dCOPIX4kti1izpRSfh5KjHCtUTez2+z84jSQGmCWB1D0L1wSB1+33uHjBMrfPXO03TrQKheONhh5ViwpOkPc0Zr7L3W7nUyjou0Z2Hmt222WtDb+lE4H1J3jQEqVvX/Od44eqLM0jH85DfAT7wRJ2FjtAMnBxSig7y5jxu4xhltzrPlHHbzdbpaMyPBAbkB+RLwwhCuj7n1xBcxRUk1KjHjEmEkUmrSNEPqFNuFfKvL4N6T8IYzcDEl29LsK8uu2Wdd9prfXDZdvPckMqEYzygSSX7iNDjolRVuQ5P+7QfgczOufuRT7D25y7qd4pVGCYtwIYBvypKkzj9qtg4N2G+L5h6K+plCowwbfvxo13trwdi5qKyyXmJhRh0g8gFRP6Rly2sbtc7WC/9aNksWxiFCfsAZPWiv16a2E24B/K81QfhFiYwX6J2LFeA1VHlH17kyclv+6Nu56289AgJe2fkKp7e2cWjGk4r19cFt+6zWmtUYEEKTWHAvl8w+eQn/e18i/ZMX0M/epKc7KC9RRkKTRhtctfoMx+zxgpxSXuzSe+99nPimNzB45z0Mzm5SUt6WVk4IwaSbslmmUDhe8QWkknMqgarkRrXP9g+/mfTKdXa/tEN3NMOToZSgq1VI9023QxTcWax3GCmxItAxG+/YPEzxHXG3QxKTO2Di3X64GCkWTfJcePa1jX5n7mjN669r1Q4sRQnDX9tCVILD6FqBFcJ3ZT1BDN46vJUI71FIRCd8NvMCIULBnpCCtG6C5QFtGFORphlmb0hWFECPQk/Iqzu70MTsMtzepnMDNBnjdUUvNbxy/XNsfOc7WfvnjzBJJiQy4fzG3SH7wTkGiQdfcV071mQKpiKZVHR6OaYcs2MnZP0+66IHX3Dwm88x/PCTFH/+Ch3rcDJlLLt0bbCxnawvdon4P+ujJzn3uA48p+FLL3LrF75A8sYzyK9+mL3/6a30ioLuyR77hKqbLZMGLFND5mYUQiBzySmRIJwIzyzRbPhNLp24zvl//fWYK19GfOTLJN37SKuEanYdsXUevTOkFmKJJbXhPOtgjTuQox80bw0Y52oCDCikRruCbkdSTq+RZmKJjvrwse8d6wKqtRS1E7jaJ8rQLQ2IlLmmW9bwx9T4iQBfHYajL9nqbSJKX3+uPbsPt+fFscgy6nEINwo1Ln+HKn1zE3VjB52eZ2oKqtkUv7fP2r0n6X7zWxlrjVKqYZcCFjTnmkiwt/bY1Amspez4CbqTc8quwfO34Pee54U/+Rw7f/I8p27knO+fBKew031mpmBVo1JpynpZBS0oLUzGBcPPv0Dv5i7jb/s4vZ/6dvb+esZ6X4NPuMWYTq9HXkCeLwZk2nRz3nvODU6wO7Wc/PFv4/rHP8hJ57g8u8bZwVloCXnrCPHvkTjZ0mcPGcesI1jwP45l67R+vwFDVgzv0XUlUIORLSQ30czs2n4Kn/Nzb7j2MIWJK0NEXnztSb/K0eD69bFe/SHaY5R26AOUJeVJTefmPjd5ie3v+m745vtRajYP/tSn0HqdAZnKAUtZjRgncJI+fM6w9+/+nP5vPEf+4g1OTiq26UHqwBmEdXSkWv3Ay1AlZWWK1CCSjLVijWI8ofryPme+DOXLv8H6938tk0fvovues2zqHpeuvczmqdN0l/gr2+gMgLCCacez8egJTv7IN/DC//xL9Ab3cU2OOcUsXiGLq/RhIETz+vWxnZvzrZ3ZOoer+Y16JVlWqocp5tsPiQg6ZDGf/BAb3bew7Fjc2pg2onZMHGBDcTAeL0KCjvCvxZl0zfEQhAKAOxjDm7fos8GEm6x1zyKvT7jSS9j+wUfYPQt5WV/mHLarWaKEEOiZgH7GZLbDzBRcSE7Cn93g2r/+OOIPLmFeucHp9AxsDmA8pSiHKARaCbT3+JVJaQYlEwppqewMpRIG3fWQDVZVoLvkX9ll/3/8MOn191Od36I4Lzh/6gxX966Q9c8259qeoHUXucl0wma/x+UMzv7Yu5n87K9xdyZ5+fp1YHNpIh4GRrQFbknIX4ea3LmgHwY+H0fIj9aEPhbuS+8rmo0Kjwmbjxtm8f3mcyXeR3oHbHzPEATUhLRfeYwbcUCOXWuzIMo72taNgS6MlIFbV6nYY+vH/gblV2mELw5FMpobL0LEcyg9O13NVnYCPrXP+J/9Jnv/1yfYviKAfpAFM2UsSqoUdD+BVOBdHfA4YpNAJlApFKZkNB1RTCZByK0Dm/Ayewy6b0H/7BN84Qf+V6ZPX2PmJKez04c6fW0TzHYT8psFPeDaffDGn/l+Jjdf4YIM6bjzh7AsSIdt8bOvY+G5iBpXyPq4PrxurIujzo3bnOd8q5EiGQ7e4iI5lB/FcYCzJO4LNX4GQfiLrxBYpAjb8UZto9cXFxzbcPzqjrauztg111k7kTHef5nr96Ss/YP3cwnDugy2uVJqQTjapox3FQ7PNgP4i32G/+RX0Y89y4OcQTiL3+xxww65PLmOT0vSDszKPUw5QnVTVhFAOQrwBqk8uRZoDNaM8dUI3IRhcYW13jY7fojO1zj5xCXsT3yY/DMOr5Pm/JdTFCBOWpmAcPRtwX4yhR94K9zfB+Eo5YQDNvkBH+wQIT+w/7WP+dnGeMECxL30O8vpJ8f5/YjgyQbzbqgaopDVmGmt2X0sr6Mi0CpUrVTeOUNUcwxRJ2W9lqtvz2ZzZ1tuqMSYzmSE6mj0DzzC7IGU3FSHxiOW6Tp2GbNeCvKnZ+x98HGufORpMteD06co5BTvp+S6YiuFPhXpbIgvh3g7jfVpR2ucUlpKW4Ap6GjoZ4okdbi8hDXL2laKGV8iUY69ruAMZzjzxJTZf/dhpp+vQhalOxzOE0KgrYPNjNH+LU4iYRN6P/Io5cCzr+aZq819XzBP2sdsv359tDnQ+HFhgi4J+AKv5Cq/4YhVyHlkm76sJn8PwRw3R02apaq1tchdQhF1mDk+wo9C+IXSy+OPljMqFn/ntWx7xS5b/R6MLtN94BTb3/teXigmnJWd0IDWOay1zV9rLcaY0NbducAzcnmXvX/3McaPfZaL6m4gYXL1KySbCXL/Fn3nyMoChjehmNLp9EjynOnwxvze3WZT/Q5OgSkLRFWhvcFQMZMzZrqEnZc5ce4ke9Ue6zdHoDa4wh5Pf+oZsp99gul0ymw2oyxLqqrCWtsIjpSSjlBcF458s8c6hh1dwQfeAQ+cxCSSRSG/3bidTf56CPwxjnE7x/NVKFItm65grYO1LkgeurS1/l1UkCdUvkJaTyIlVAVFMibZHCxEFA8bXlYIBF3XpVCSrJqyXt5ktOboTxRerfj+is7Lydoa7uZ1JJ5Xvv1ezq8rHp4pnsr2eavuUmlJd+TxfcllKs7NNEIHivrOyLHe77H3O5+n/OjT9K/eoCIj3dgiTzW7Oy+xqTfCRFeAilCfDTnweapWFvfKCSTUyf+BJ7BDClWgmSiTNcSNCafJqFKAIVvyBJs7nurf/Am9uxOu/MN30h8XdHTFTiLYMoJb3rEtuhTGsp5rhNMgJJtC4c9bku98iOzTvwRcBAmlN1TCogUkUgQGBhPYusJ99o28t/OHtEuBKULMUBjMdEY186RO4ihR8uikOkkPLNj7FeLqTYZ5h7UJoFOsKQI9So0IAsuo4Mo0bhFqGvWCgEOjmeej9aAOLG1L++qiguYYd4KYOOAY8NzKeEFcGjcGrF+8AP0cckGHmrhINkmFXRJcVeGkpkgFHS3hC0Ou/9lnkS9f4aTagCRjb/8WThs2+wOYrDiBFcXjr+0ezZ204eOfYfDURdRDG1gcg5lB6YyBCowKiVZzC81LnADVTeDcCcTZdbhkcB6EiLdBzCu+gpcY7/+CadR+Xa8KgQng9Rmr7sltNPwRQy7Y56JGCep97a5htd3uo1Pa2rf8Pu33X+2oTaP6fFZs4uhN+hKLwTy4Tf9t90I3PNEuMnBDNt49dAgpCPu+nNexfvhxqse/gBztQyeBjsa4AhcbU620EVeSoB79/VXO7N4ffpbu//NJJBIjJNlYgPOkPmjChjoiVF9jvMV3gIfPIt50kooS4wNHpZA+JG+ZkBLQdhVvO9o9fZrn93qOtiI9BP5cYRrWtr5cEKYDD+AwgWo7e0vCKFrHoHZuV4xaq9ZDRGe4mUSrBOXozZspBTNmb9iE+08yFAYvIXdAZXE48IbKWRICH3xV0xXfmDH+8OOcfHHIaTpQTXCzW3S7KYNujh/urzy/4MQfsVEdua2aCJ3dCTz2NNX1CS5NQHcovMNVlkIRY2425o4IytKEUpb71inetI0VBkcFBEpuDXhvcU3MZAU8Cq2/MavxmMGco8dh9vhBIT+Mxbm9OUKKsZ4LdeuED60wOsy0qYVSxL+eYG5Ehi9xtP18+xFvYg1prvzs7UfJBBKLf8tpijUoqpKO0nQrsFqSoTDSMKpmbKU90BohReAK/OQXyT97hb5IEFkH/IxZVdHpdhFIysmMRK/qkbSq5vFoG1bE/w5ec9hOMIDPXGb66S/TOfVGyBSjRJCVFqE0WRXylWSs2pcuTJ98E+ybTkL+JZzxSO9RKBA+ghDLkcnbmS71Z+LqVgvkQv76HYzDqLYPBLmOGiHHXc95TdrCfZgn3vrB9n5hock0q6Oo5lVc6CJh0KLpBIgVgrJieS2VJd/I0F91N2MgEwLvHR0yikyQAzZNKKv4O7HaSd+YUH3kz0gixQMY6GUkM4OZjkiUJk0TVmVHrqbbWPV9wUG6q5ZGTTcYly/DRz9D9tcuUN47wCDJlZj3BKrjj16SIpkBPoX0DadJuppyPMVVHgh9oiSC0G3iGGX8SzIj/euhzeHwFIC27NWBvaNP0Meidb14ow8eaOHHDnNGa6H0bi70tdY/dsBo+ffbNu6KY6xIM5gwYX19G/HwOSyWdZXhrAckhYTMBKXqWoxSGsguD5n97lMkOmVmCjwVHZWgqfvreEhSVvHaeL9qVTv6/KVXBzT6QrMFr5mSsP7bn0d917u4fu+ADE2GRFsIJEI6PDUPCSkjbyiEZvPh88h+higKXDEL2YaxfjNYLf5weVhwTNvO6F+lvf5qtHhrCA+iucstB3Ah5Np2BA4R8oVQ8G0mwWsa9XmscPTqpfKIbeorRK5he4ClCCVt1oGLRB6zMv6ibDADBTCq0C9fxfsKqxJsKijKKaYq0ImGNMUci7971TXc4TAOZIfkxRvw0i43KEk9Qcgj00c4CxdeCIk1ZWgCsD2ATMdOI64h7Q+pUGJJoF/t+CsQ8teI43vv0c3dqG/EgocL8/Dh8pIUcdVEY6oJaa7xs8j6JQ1lOSVT3dUnIUB4iTAelQowBsE09O9RglXFzW2c+rA24A/sCv78jVPekSZsoShHQ9L1dWYOtgA6AXlZt5LCWugpBgXs/9LvMejkWD+mIwTCxvB6BsHuLlHaz+HDdsOulpYW7RWpLrdqPgeIaWtVWnrPy0P9HNG2ZlRFYh0zrckff4a3fP/buJJXpHJGkiYg01gMJxu+1m26YUWQcO1rNjj9f3+WrHOWclqQ2IpRnrJWCLyfHepDtC0pL6LD3NQL189jCWR4VWPZVGsFtg589Ggur7pAe6k+33Fg2TkQel2OkrW1qwGvWCyQPuZobPr2cY9TM3rYkrZodg3ObIFyWEAnIS1VqfgYwsqGkhJlY++p0gQmX2silbFobe3RerBCRmFvn8/SAxK0hLq9P75uJkJ0BoVbaRqFYmqJdx6mM6g85J5EHi0A9cg3evG3PEIKRNPO0iGkasipjjW8X+UyHfdAt9ktl+Tx+BNJH9TgxzBXFoTRRyisPoYFbyI09mpw9NrTd8wdW/cqb9xhgl5y6r6zIfoHpHlQa03BjxORXCjQWTvroCixxSxEBtOjaKv90oSvtZidC32T4hwvpF0e748zEVYImrAoJWBmqEZDkuEIt5YERqVjmB7dc1sYJIoqKG+rYtaph1RBcecFyq/PaN+rdkHOCgGJ93OJBYCD0OLy+wtaH5qmWAgC2VA8IfEqBL0Rljo70gS0RQgO2mWHX0j8x9JfKGTJ+oVTOBnw475MMZVFpSrwp/i5eAo8whqYTXCzKbgSRDa3FQ5DP5qfEotC3M7I9JI5Js1cSwsZrrddJVO/9K3vHzGct6hoY8/GI9x4hGQjHmO1oCcnBsy0oHIVUqig+pyl4YlfmU9yMIv89RltE6j+d0SBRL3aH3+0UJeW5r5dWV29bynx3VNGjV4RcHQThH4lNNgaC5VFtcCLYyA37SX6oKAbWZL1U7zwTcW6j4LlsYi4xHtPSITCg61inkcZzLGjBH1hyLlwtdGKhp13aRI0UGq9LwpYbbYgWVUqZjEI6ZAEc8uVJoKJx1zWOxonLcbNSHwWzkHWSqpuf3nUuPPuzkeOZiWsNXoL8qyVyJGj1ugLODocQAPEYe8va/SAeXtfxULp2Hz1WPBiPTvrh15r9JoPZsXMXXj7oKBrDBTT4COjFk9d+IBCIDHOkgsVTHIpWqZXLaS3sdEXNHDUggtC1jZV2pNgyWxpHp5s2eXHMd1iliWOTEkSJRsHzIvVX/dmhsChvEO4EKBTtY9la36d44/Xg6Dk0CN5sSjsHEfI58fRB2zuQ53R22l7mIf/o/b1Lmr0ClZiyPVYdnjbdvqKi1lhuiRUmN2baDyJCIIuRSBWk5FPxOAxLpAtKa1Bi0DqUzvYK00X2dLa9QNYLkFra+k6wAaNKIr5IReueRVOLxzeBa5DnWSQ5XMM/BjDFgXKO5QUSBNylKQMM8T4at5c7bbjr1ijt+/jYcJ+zKml70zIg0CGfPZaMGr81bPavmuPJTNJuGN+/2jURXrPeDhkzUMSI31ShrMO/ZokFkvpLF4k4Te1wEu/cJzjnUNETYRbXF4XT2lpFfA0E6RBWupjHe+3nQtch2QJJEkLA199DFdWKAdKNU19gnMrJRbzVy7Gr228OiEH0MhpfHkYbBj/HoiOtfYJEJQI5fByBkKBF6Hu7xhUBNIbEBlOaSwV2k3B74R9OkFWK5ZO32Yai7tqSwHAGvqfv8ZQho5y3ZFk1oMOAqrQZrNXKHpZh7Gw5EWJ6iXs92AbiVlzaOthUiJKB0kOaQIi1Hjmqv79NpLSum4rF09qwVZv7z/sc+CbHlIyRkJl42MApFnCbH+IJOPaG7bpYjgxHXAtG3NqJnHdHDn2kElu6BAGWBtZxGzK3naf9d//AjvbKXIPNvonscMReuih18FPdkAe3SxNqAlYjxc1rDy/H+K408SHwhctFFKGPql4HXjlD5XDWshXKyI7t9HbRusydFjvO0LTe1rVSbXNGku7XnMF/yIOfuRY4lh3Ynl+OabDPTIMTiTh/sSrbhYfAk+iA1SaghNsXDgLGMzekDTPEakOcJsX2NkI5wX5YA3KdqOBWiO3hXWuEOYa3C1+vn0BC5+jtbONNMy1mZ1NQ5uVLOW6mfDmc1swMgw6OXQFFgK3ISFepCAE4iKtNXsjqukMVWmQJQ4fer9Scz4e/xmGyrTX+MyPY28fwNHF6tOLt0yv1uDLMynubx5QnWoa0BYaZCMwBhwXBPKeSG3hmk1IdxzW54ULEsvXnjgmN66y7Wxgy/JzUVMqzpP4XVuZQDgkJZtvuMiVVHCqqhBZCt7ipUNkKeXUYIuSRAzw7fvma209Z9gUbRuz7agu2+mN/U7LWa0vqIXS1DBlvMjKWHKVgzIk92yH/B0hyY1lTys0jkQFzdrEqRWg03BO+9PQ0Nd6Qt62w+MR/v9H/NwftsKx5E23tfvy66NGExmNF7Qs3M3nqqX3l1CZOgIqQuBozqZ7XNSlfSQLseBayNC0aeWE9S2NyaI29wJc11DduA7XbpKdCcFwgw69JerPRvm0xoDMsN6jHrrA/v3bnHn+KkhBORkxdpaNbJOkq8EUMB21eFuWTZBwcCF0a38NH9JyONsPtu0H1ftVaxIIFlEyiZYBmbnWMzz06CPsApmWMC6YrCt6+Kb4R/uAt6ODY+1u3YKJoSM0SgVtqVRozYOJz+I4NQWt4V51ZLR1Hxa0elhNmjYDCzGK+WuxQtDFXKMfFTDyLGDht2XbNeGB1lVBAuaFEatGONEGJBAtbe58bPF2xGi5AgHLjwt93FdqS7a/D8++gDh1KraZ0YhoZrmoaT2gfAgiFR1B9/67WP+GdzD6ws/TR6E7GlVYrC3RaYLs6FDpn7SfbOthHYYWednaX19wK2C0oPEPifyJ6GA2s9mitcTOdpm+7SF4+DwmEj+hQw9pRaDmVt6CDbzslRIkBvjiZdibkdo6iasMk8BanLWRfmKVoN8poLgs3LXZ1hZqWmbLEnS7yuTx9a8cqNhpVxO51usqCL0wrb8VKIdUPmhgGT8rbdj3KjS692H+Bo1nA8YtHUL5Ize0Rai4aRvS9lr7bGZYr0r4zOdhOAp2NgHudw6cM1HgIUvTAB+TUXRSTn/g67nBjKGbIAcZg80BylVgS2Q3w+YCIcOkDOhjXIlk636026Y0FVqOA1VazQpYV2fdrpTRLe73Fa90K9a+512QQBfFjp+ClPTwZCb8ehFXAi8ICRszi3jyBczOBAqHtxW2nBKCZBaPI9WvHnORq5bg2465093W8vNEVBGS/zwLf2NV+m03IcImFzHrQx7E8iRYLqsTxE4JoWsCSgQfq8k+PO4FRtMFCI5QvELljt5awt0W8PrfPnUoJRl+7ouwuws6LjhIfCT5x5og6DpoZAPcwMA73shdX/tmxqmlnE1Aq5DiW5WQC6rUBQIn4VsCXjcnjrw2bQKodtS3LcDtey5iBqiwzINztTk491/qzZczeu98kP63P8JkOqYLVJ0uSNgwCl2Fb0+xIMHI4KAyKpGfeQlpLCkKhQyTvj6ut8GJ4eBvLm6v57gdGtU2B5dNPrliaz7VhhWXEZe2c+jnD6d9obWQSyKtmJ8L+mtCXVq/LXxogXLE1jwY4ebdGGT464VDaAeZZHLpGkwCM1Wdmy1iy3Zr6/aJgAtZjpeKXdjsod/3bkxHcu3GVZhOYnpjsHtnrYm5GAdoC2jr/QPR5dZnbpt2sWxKLj6jyhdsfd1XMzq5QVHNmN3aZ4ZkcuP6PLALVLEG1BNppacV8uUdJBkyy0l0GvBzBU68Gn7z12F4WpjwEvx66DjEv1kxtKht8AgLBg3TElI7z4XxQgRhwgd8VzgUYxItwVtEAsZNQcNaV0N5bYHL8LBhhUWiSbynxOJSi1xzyG4BsyniyOxBQNp4+hIRDXPZyg23nQH4K0ye+WPGr3wzvXvfTDpyTE5KOqZEugSyhC4e7zyu69kwhreJExTe4n76B3GfeR7z4h8w26rIBZQ39mA8ZXPawXRmCKEi5httdOfwNsBtUsV9vkZPIv7pwudNVi/39fmHxlX1Z0UpYKvD7uUrbCDg7P248hbP33yRi9lpvvT3/iMe+pvvYMtLbm6ukZFyTwl2rUeZO1JCfdHGLPz0OPF0UPDnl0h+7Un82jbYMsCyFlxlkV6QqBSMbVyKeYB2Ecf3zqEk0WytkNKTJCEC7ZxiBa1LELMM0v2KSaLoTSykOa4s8FkHVdTwbTs4AseNyHpP6FjSaEfsosZuL7fShkihsAjp8CouydKH/crG1xZUoE1w8pgsAMsXLgjHUi5j+eHMAAAgAElEQVQY0tKv2OI9EA6UDZo9npeXFj2ewP3bJMMpvc++Avs3SE9q5AyMzg9Q0NX8hXU7l47vsP1ffTenvv5rSJ65RjXaxwwkUhbwUI7UMsbI4spSV+7LsNJ5Ee+LrO9vverFVadhR7NzDe6jiegdw2QC0xEb505Trfe4evnz+KLg4tkHuMaEe973CDxwjkLAzJRBWysoE0GFxCAR1pJ0e1zf2yFFYi/dwv7501RYrDURIq17NUVW4WVje2F1vt1zvRNz5vU2g+ZHdRDYdGtbPMCD0fb28bW24aEoE6OfIbtNqDABRP2+iPuUi4Jf2/lHj3YjVUEUGBmOjQ6/e/RWhc/G3xTah/1RuFQ5ZZROuas7YPJ/fgRuXmWII09gPGOBNL85j5awozP0o1+D+rZ3I05skIxLumsJZtNxefQcIvGBY1E5nDA4LE4avLTBbKqFXMZ7U7+W8T7V9jouMhVHO95boCKVjspMeGVylUtblpNnT6FGY6ywDP7+t5A9+nbY7lAQXZoIO1VaUAC7tkCShEmTBT04eGXMF37198nSDs6b6JB7pATZAEO3s8OXzdvDPueiI3R84fVt/kgRmA98k8ZwZ5sQCo2yNGT/jcaJWLYQUUsGkXSitr1dDE07aoYcHy9KCocTDoSINAtHj7iYE3+hmShCe4iJVkeOmlemFayZ319JRUlVlpCuM3vqabp/9IfMzvSYbF0kHyX4ThnvrTj07zBP6U8KxAfew/DaFZJ/8yHyV66j71tj+yt7iP5JcBZvo+0PMfQdTL2Acwpc4OgmqH9/EBaL2tw7j49JYcJDVggmXcuNtOSs7yJnEqjYeds5Tv7M9+E2OpThF9hSecNBpRyUVExtcEIn4wkbG1vkowL+32cwz7xAsnUP09EMISITr4xPxPuwxcLquY9WQ5su3uva15i/dq9hFQcOKJtm/2s6WmvExsXay1bASLSWz1jdI3Sre6+Ipkr8fHuJC8+0XgIJy7E4jrvQ1ugiaEdt8doF/G8Vjl5zsMfT8k5E8y0I/TS3bIoejG+y9dAJXvq5n+PCo2/j1tYFNtPsAOvKsi/hEQiVox+8iPmRv8neM8/S+8gfcUJ42DgDvsILF+TZhHvkvEeJ0C3Tiag7ZEB5mgYJsTGV8A5Rd/ZzUdiaplWAMwgveGv/NLw84mbxIv4b3sPm//AD7G30UN6ghaLjPNrNc/RyqUN+WtqjGJV01/toQL0y5aV//xgP6HWMLZlrXwOinRFSh/9d69+OOQXG0v4muktLyx9fTN2SRgdaGv21D4cPGl1EW1E0Am4brQ1AnAi1BhcqXqKIHH2qNROFQ6iQQGJ9yJNemc3s2mHeaLtqh08Ab1ZDlNLPgyteNisMhPMSuYCdGa7rkeslyRefw3z01+mevwDJ/Quc4oc5zIPKMckCSZG+9yJb//gn6Kt1+JXfYdx3ZKpq/Ap0BC69jVo9aHrvZdDmUoYgmFfhtbdIr5DeB6hTCrwX8+xDL7A9kNMKvvQykOK/8b2Yf/6DDN/xFpJbQ/LNtXCPa7mKKQ1Kaboi0OxNOikO6IyAD/8x/jNfpp+uM6pmpFpH8zuyImOjM1w/l9qJbmnx+j41rTdpnqEMuaz1wz362UGT6Ho7QX9N7YFao4mMCj23sRrbrJ2iqusfD5EyJ+qJEWeykhC504WSQSN7C87ijpWPvhjpEsKHnBLVwtCPvJKIn9Uhd2qEIDywnvFYWaDWckbFZU6dU1z60C9y4WsfZfjOs3RE0gj7ochQVVIlOcPRjHXVp/+Wr4F/1Kfq5nz2C5/krTs3gvaWNSdK7KZat4eh5mCRjUw0kU3nA0LkJfXtFM4G86be4cBVhutJQve73sv2T/8gO2++jxLYTNfq2xZvpadwFUKn8dYYkqmm7If0hs5TV7n0cx/lvO+Aq3DKIoWOusLhnI+HcQhRF6nEFIQFk6W+9/XMmj+/w1+vGAuCLhob/fUYHolHIptgj4prrKxnaA0xRqdTeJwwzWsvbLT1YwRUeiC0dAmG96vIk/A0U8/Vq4uIQr6Ct4VWS5DGt4gOlZAOWTjU3SfYnezS3+xTrhnWLl+CJ55mL7NHCrn3HjqKgXV0++uUPoGXS3j7Q8h/8Q+47z9+P84bbGymIBRIRZys0cyrA0fxPIOZG5VLGz1qroeW+ehR+yXGw8mf+A56H/wvuPLmU8i9MacN3Owxtw4kGAX7iWdE4KzZm01gatjBkGrN5cc+Rvr8DZQpYdDHORO6fUTzc86TX2v31vMTtxHiQ2sU3CHfOY4YLJo6ryeWrx0mXmgg30RVCAlOmIbuy9dOqIrogPQxqS44jsaA1CmoBGNmaGVI5RQ72cUK01h7wcVSreAAGCRaDgPfYdnFrG0xPDdjbTSGk2cx5ejIC5gL6OHpBkXf0Ekh23L4/SG538RuwM1PfJi7/v0+s+/7p+T74KRhNvB0APY9Pk95NhXcUzikhIF3iExgz3aDObJ5P4Of/m/J3v4+bvzqL3L9N/8DZ81NNs5twCDDW0GFJtupwg20IpgsJAhChiRIXDbDzUIDWdfJqUhhbOjesmDgyb//LbzxG78OHn0nrHfoIhHrIXq7OXV8sSN5aGJgqtEnBF5kSAdrBtY6A6ajqzxgNxn+9uP4jz1B15dUeY6a7rFhdYjyAqou4I7AQ2OWRP55wTzXJKqkeNsT8ALlJEIpiqogFR1Gw4LeoLdSALNwcPJLIwoUTmXIScm+9gxMLIZpRjtKejzbXVmDUim6bozka9C/JeQ+miii/o0o5I0mb0LTFmQCmJDNF+3mtvndRleaIZb2CRmctgYbX90e5jZxqPn7paHSBTKRiJ4Gr1FuxnTnMnuf/AQ88jTqzEmSwQap8VReIAYJCsN9kwky6x3Q+rXWk1Iy/o6vZvuRU2y/903c+PAv8/xfPknv2oyNwTpZkjDKR2ghkVIhhcT7CmcN1k7w3lPMHN28R14o1Iu7FG6EZ5Pdb30E9c1fy1/7uvfBhTMwyJhgmVVTekmO9gkkkrudCYT5icWLLNT/l5ZxaShzxeD0FsUnv0j1y4/T+fwVUiQy18GO9iWyFp7bFhq7I9+fZ9L6+L8IEKUIbbJWhnV8aIoew2NB6b6qpNfjCbwOWto3+K6XISgUCG3mtrqXtYkTIaTGrIntXFSLVVfG6J+klWh5uERKAaImqJcKr3QocqiYY85HjRWSnjlJWRaQKOhIMBW660iKHW489Wec+rUPMv3O9zMZvIuePoHbN9hE0mVKMrqFy/sHTJv26xGa/VMbnP3hv8P2D3wP208+zZX/40Pc+uO/4MzIo3sTvBc46wOFnXP4yobsSe/ZlGfhpSHeFLg3P4D9lq+l+qa3k7zlIfLtbUp5skkUkEjWk5hijAFjyGc5ZRdupbDuIa2Cf1/2FLlSzK5dpvzlPyH9lSfo749CVw4fwIVJR9I3sCjMzF9DXIUOeb/tcAqNEx4lQp9pqVXw144zvF+ItB52j+9oRK2pUaapj/QqJCShoj3e/GDMFKSeCCBktKiUxWPwSoQUWG/ishztUWfxUi4U2Xpi9M3Xyt/jhERJAWmKTHSAb4VhNeHUCo2fKhLnMMJSRAg166ecdop8b0z60Q8xOeHh/AWmnZP08hS157F5hTqR4WLi10KnulZ35tNCgz7NPjCShvSrH+HMvQ/Ccy/Ai5fIn/w0zGZMR2PKyT6+Cp2iM6nRWlKeu8jNkz2GD5+n86YH2T5/H+v5FjgFTnNJGKRxdKVioFTMvw8OfylLUpHj0kAiWoxHOO8p1zqkeLJhwZV/+xj61x9nc3cfun2s8KjhBJ1n+F4CpnYoDxPm+v7e/n0nHEq4GENwsahDhrz2Zef10MfnF+q4X72AH+PzQqC9rvOOTdDoysZ00yDYNdJSh7OJKajzajEbsG7lAxtdYkAGFg2nwFc25GzXplXtWROXvXjfDIIEDTrknlAQ+hupV1e8cdhFKudRSjPDUkhHknukV6yXsLd3nd5jf0Dq74XvucD++gkyJZCzDJllK4O7zw53OK82GZAwcBoSTXmqy/jUJpN338/57/5PwTs6kzH5dIKoigCZag1aMs4Ug16fdbpoFJmT7O+WTCW4NTgpNN57kmnIJUJKUBYrJT7tYHxgIOsC0hjsRs6Miu61m/AbTzL43z+GfOEGvtelPNOlvDlkbWygypC25m5pw4FtYYYD2nvpfSFUBCIcLppzpAlSCyzHgJdbgSIREZfXcwihADmHF31EKUKeig1IighdoAOcGt7z0axBRuEn5FD7xCNEaNcYIEYZ+W9cwI5bE9vFwL9vymcljhDBIk2QqQ5ZdNKuhNFXeebWFeg0BQGJV9hUMcXRraaIBKb3aNafeR72PgJbZ9Df+a3sqwHraY6YCWTqDjVd6s7MJwanMNMSMyzRvRQcXNvZxfehl25xVWcBVBl0EIMa1AqglxCedaFQu8C1EXQ6cBYmmykl4ZalFcEWUbqJ3zghsTL0JtrLoAf0Kg9rPSyGrqkoH/sEOx98jJNfvgFKMOw6hmZILk2gu8aTDAtIY4OxhXrWlulSO523ed9HS9wLIlJGqEdVspV2ffsRunQHKZgL+qtBW1aZSC5qdNmC82qN3goiNcUvwkdzxzYwWHAjIhQlo53vHF4mMWVXhKDRkjB635pAPpgyTXmC0qADNVp9vKOGWHFTiiSWR049ygvyfodhMeFWYdjKEzq5gu0SJk/Bb/1bfHaDtfd8E3LtIcwsCbks9W8tOaPee7aqCnKN6Uhemu3hMs12d4OeAf/sZezpUwHCq2sBBGEpc8F0YwbTrufWQ31SYHvsOHPTQiqhqxjP9smyDJ1mDSoSCwmCTAFZQVglFKiru/Drn0D//B+QfvpZSLv4tQRZlaxdnZF0+ow3FXJc0hnLhmF30dk8xOQ46v0Il1ofKURUcC5LDBFXOXIcUFaNYrlzeDHEAyS6QVdq3Ld2QGVo8dE83Ij/NgJfO6LR20aYED2V0Var6XxdTVgPTYaqX1wQw6hJhWQIQon6N1ZcyYp74TNCvsxuERAXmWJlSSWB/hrr13aYPNznZjVEPfNHnPyFEYnewj96nqv9DTZLc6Arc9Mfxzl8IpHlFC09F3JNCRRMqERKct9ZtIrZjN6DD5askBKSEBQpMoXyjlMIpjhu9CyuV7KOJ7MSvd7FEODEmSnBCTo6IRUhaK0c6GmFX0uYmILi458m/eCv0//0F1nPulzuV6x1M/rXBcw8dCTPdh1pabgnWyPYZu2bvGSTHxD6xfed8ChEWHSaYhkZP7laUA8T8tdXo4dVRaMMQhicrBAyUso1+SsKl5r5sh1TYKEO7AiMnyAzhZca5xwqSxHO4+yEtOdJX3iR3bdcRKBZn4HUFkGBdgkl4FyC8oaZcgxmEnPmDHraYSSgk6ZgjjaSbWsyhnNetHW6JbiyQvSjLTq+wQkhoJdAMQR9HnF5yKCX0L3L4249xd7/9jP0v/QpznzgWxlf+CZ6JeBuQiKZyj67aPKkYJMJ1m4hkqS5p6mfK0msDz4HND7T8mNJSwCFkNATgp7UOJlhgZkCMfTYxFFlJVYHQiFnKkSpEZVmaMCeSJjtv4z44K9w9l/9NryyA3mXVy50OHlNI/csNlEIrcFUPHhDgtegi3hetoUTtrDqhs1AtPZL2tw1ycxiuxI1HpOQcetsh3TQRVnNyKb0En8wf6i1It7qZGx/akhhDX25RmEdmY9kp1UkPm3fuRp7roPLdV3yYfz0XuKFQCmNdlGbizoqJ+tQP3ONHvNaaqSlDhgRbW0hwMcqo4YjW4lwTmWx4Bf7mtrNBaEUsXpXIkAoRKoRiUaWEbxZEV3zQsTAaoPmLgq+kos3evl1ZwRpieg4lAVNhdm5zP6n/pBkco3+DynK/kWG3XvwwBaes2YCM0VlBoh+RYXDOofBgVRImQVB0IKVIZOsfmau6f8jnUTHiofZmidH0auAQuDxmEQz7gYtn1DQ+dO/JP25/4D//T9lMrqF3k6o1IzOzhQh1xC+tqVDuka4dgnOxvshgyZuhOUwLX4bBEVJhPQBj5c+IGaR4EnXma3+oLDXwwGUBS6CqC7KVSg/uZ2DtnQuC0Je71s818YZFRFD94roeArwEWERIGJKrqgxQWrUJC7pQuB8rDxCIpwMuezjMRITFiMRBC+Y3fX3mAu6FIi0g+vkiCq+L293sXHUhQLUq9DS66WJcMCrz/awOfg0wHmim9NzFd1rzzEZv8CXh09y1/t+lBNf96NM1BZ7E8saAp0kIBXa7AWUSaZYFDaaYK1A+JGjsqNocwsCPagg5AoFnB1ZEppoJaAUwkFiHYktQVl2P/Ih5Ic+Tv9Xn4DpkP0zOS93K9YnitOzLlabmKAYehP5miG3fiAL4fzWRGj2MReaA9CjIzQ3E9T8OL6rYa0Dglh1dfTweBiNQk5aa0IoTzsadcQBloV8+TeDN6ORBiFDsUBduR7MExnzVmJpRI21N7kwrtHmUoJtbPuAnngfng3DfVSdzxY1S800JlBYAbr2vAW4PMd3M/xYBkd0VVm5crfV6J64KtTjMGH3kCiBFZqpS+h1FeQ5ghk9O+TeyyWX/+U/Jn/sV9j6u/+Q7lu/lZdcF+srzqQlyWy9Wd1rf3MuPz5kYR4xUpkT6DbkgcRWAeSVZlyU3DBT1jY6oR3NaAK/9bvcePzjdH/1j7E39zC5QZ8boHLFYH/G+hSQCSK2oA8lflFHeoWve482VU1y/qMxxbnJ8W8c0eUoaYSNvY2/UWH7KQxyrIDkGLZ2goDRmBQNMha7YGM55HGhxiUhb5lWc14XHaOgyuKliRCjoGbInbeIicUWwiPq14BwMu4HL0V0SCUehXMWv7+L9hVGOHD1wwyflzJgwNq6xqk1aYbrdHBaBqL+/GitIGLk9HbWiW05O/P9c80hnCLTHTwJUx/yynuZRXpLZcBcvcW5rRwuf5rL/+KH8e/+O1z43p+Crbu5tbtHvtYJMgRUFTjjSGWFVi6aXSv6OFW6MXsLAVUEY8KjcqxpSZ6k3AWo6RA+9xSzP/gd9n/rowyf+gu21YOYBPZ6CiEM3YniTNkPD9pUiLRO+4088LGaaB7xrG9OXIPaS/6CNid8p9bq8T2PxVuBxFF6g+mlsB7y/JULptxRIwfMcEyiNSDwSgLmVfQJu72QN/uEQgttcbEWVCgfUZPaBIlLv6jNgBA59UIgRNDSMvKYexGWWhcDRx4QiaDY3yOxDqcD8uDru+RcCCgBOIey0cnNc3wnDwGV/6+8N4+dJbvu+z7n3lvV229/+3szw5nhcNVwhrsoK1xkSrJkLZZkQpS8wHY2wYCTKAgQJ0CAAAGyIECCBAkSxH/ITiIjRmSakqFIMqFYomhZEiFSXCRK5AzJ4XCWt7/3W3qp5d6bP869VdW/9+b1SCPJiVJAo6u7q7urbp177jnfc873VM2AZPP+mwyA9vvllec+k3CvtgfAK7XNuFCorYoth6ZFUq7OweNwcrzEY7k0qeHz/4D2mV+Bpz/K/rf+GEdXTiimu5jRDr4s8KUSWxa0CA1F2BC5rTzeOIJTqNxZsAQsFVBxtDhhpw3wwlX41K9x9RO/xPHvfoZ9v+L1V3a5ZgJ7MubMicDdRhnERgV+y7JsAludsxbVHJJhT6bT2Je5j8AP7eFTtrooiqQiE6klEGYOdiZUsWb2KjTyBFjcOcLln011D42xlK9KoQ8FHE4Leb7fDquBHsXRfUoDUPNEkjkh6aIkVdJkfF0IGv5MkyGmvOxgU0gkGPxiwZhWrfQYCJgk3Ho6uYZf0olKOVIbvXSwqNnEjx47hEi61II1WMs+2FldSaCkwoaKcWkYm8gqRsBi3QiKJWEC1SpQx4bSgqufof3s3+elL3yCybvfTnnmCqNH3sLowhtg5wKNm+Ct5dWQ6MftiJYwOyQEqJZwfBtObsDqkJ0Xv8LiC1/k1m/+JvZrX+eg9Vw8uwPuLATDyeIO224HZjNoDSwj2CV+XCAzgeOgNz+kHCSf7KrOjBuM1dD+7nJdBjdr+Fk6VqxBfEQbKnjitIStkpZAIZuiHCArz/LmXWbB04bkyxGVJMGZP2SC133sdUVRcB2GngmIcpifdIEyuDiRtaxGnQXpeOnxd03pBSz4ugIftVB4eNXrCQ7deEtZIqXDOItmM24Yqq60L/0s6x6+OZVcdBqKjDul2rw1HaQ8DqiGsCWrG4GdScNOyv2+Hcc0JjJrX+Ty4kX4+U8Tdy+xOvcWVhefpr38JKOH38r2w0/A/llC+WCX9JgjDBapGuKtu4Tnv0Hz7O/TPPdlws2rXPripxnLkstygtlvkTiGuiHMx4TliNdPdyBW3LBL7O6Ig/EYqpYy1KxIppP0Uc3OLu+GdSDE9yRtnVKpEjoTKH9XusUhmQwjC6OCKEuQzROdZU11PAe0sDxlThGMdJyRD9zuyai8v1PqxCnLTcgUc+js1PRcg09CHROaoRpUNBUAErSokKQzOhFCbNSDLmB04zNw88NUVx6imBnKBo5kDuOScROYRcPtrS0OmgW0xzRFYPsH/hov/N1f5srBXYg2/X86DxO75Q3ADDo+3w9ZkXuyH9cnzrhuobSE+9LHLBiNhJg1s8B+Tn4pHLFAU3+bW8jNT1Jc/zXK3y0xrqQyBWIN1ZW3Uo62GW3tw3RXTbKg7WZoV+w88xXtl7RUWot4MsfPa+KyxTcBvztTnRAm0Fpd+ZzA9hw7mxOChWA4651mSZbal0m8YzsKYeJ1pfA2NQz0RO8R3xCDIMYBhugbBXkSDi3RpHFseoGSnvA0iAq2qeEZucvjsz38Scvl734fcxr2mbCwMM3oUV5RmwYptaqr8Q3GTrjypSXguDYTxn7OzBXMjhf4wjEIJ9OnIZh+RZE6PVtyDr1QdIIemwq2ilRuKElgk6DGJOzry3xvFmjagOYbY3IuiJ5PzKo5YerV4i6j42NKgmYoAs6YhLuiWb1Egi0wQR0SJjuMd3YI/jq2SAOeIJ4ugovptUkn1QNhzue9CZ7cuLZu+L4oxYYQtXjBRIwJiXcxwhc+y1IsJ9GlIgKDJWLF6+AXgsSADS0meIwNuGkB4zFFEHyoEQyEBBD6fqzFGKLPsQ7BrHnkIXEUpiJfyUBCLzgxQWaiOdK68ubCmKEj2o1t8qOGg+drHtndx554bseag8evEK0hNB4pUklg6CPc0ep9i6gV5a8fMb57BMBkNMZUEbzXQA/yhynIu//tSbC102uSXshNX2Qgye7WWZK0aUpo0rELmDQYMX8nwYskTLSa34C7VxmxopUtAMpoehQrNhREvIxZWg2CsHXA5PJF/AvPYifZwbQZXNUQencPcgBEuhuxtv9HZ73U69owEyQh5l25rASMUQqRGIXtc04jpG0FzYqOFsAIWGG1apUJQPFWohWiFBqHwCjlToyqlY0oMVmLmhDRKxwXJcE+MflaRgU3gKaR6n/RpK4UkmIiMYLX+ypBiGIG+Xcm4cbJfO2QltArWDEc24Ztdxbqqywvb8ObH0aMwS9XWJcZuwLGqr+HM9TBY4xVKPq565zcuMUWkdloTL1Y4GOAwvLHUTeafVynQptqQlOuipiBBiWbKjHZ6KmUDhX/mAI2GaTJmjyaFACorsPNl6BaEEZb1ERKKYBIHSOlCZQhEIxhbpL7Ntln/MhjLF76FxQmoz7Z/tf8is6c6QR+aJsPNfqGpLDXPJaREGLyMTw2Lfc+QgyBtm3V/yvBjzTj0QQh+oAJMJ6OyTwq0Xtia2hbze+OwVK4lpg0Ol6pG6IEzUsPafxjAgVSEYQ6nekuK0qgky2Ph1iiGCRGzTb1SjwqYohi8TGmsEmywdMkBAiZsz69X40t2/OKhiVnPvhe2DK9cOURStFyXeOEoFeEMw557hZHd0+S86p0d8GIBvCWyafoUKL7PTYoohR0dJioHZMFrWQXo7M9IyvSfQNjcohWTYjsu5LNuXS8Dpqew0RO4MaLML9LGJ3H20CZsvdqEylKg1s2NBOoJeW62Sn2ibdRf/lRgn9xjSypKzxOwm6NH17Vvfub4MnXKugx89igSkFaHZ/W68ruSPnnFmdVS0cPsQ6qLesqmYpJSUvAOM0XIqa8liBEnzSiFKpgvU0xC1Tgg+1QMjVn0uTQH1XB1ibxKP2g1c9bjYNEIARBcERsWslyKoI6sgo8m24fDLNyDDdvc3M85vKPfAeteHWuR4WuPkZXex8DUQyRSGGcBtYi8PVbuMorZ0PdMgoChaMykTLEV0ux+MpbMutcdi6zEJHzWIxNFXFCjoLmY42JKegTEUxnIw4xd7VeItOihmvPw+EtwkHAG1H/JgSaUUmFMK4XFJMGJwWjBogjeNM7Mb/3PuI3Pobak6Yr58vOaDB9PsXahQ2fN0ZWHyzpGyvRg2ppCQl1SrZsbpNaVAXULZFWtXwKVdggCJY4ki67M6YxjqFKnTQsxvok0B4JVs1mb3qQJIiSNoVkZJmowmoiHXNoMkNikpoopov2m1Zr74wXhX7bNGFjSoKLmv+upgoKEacvR4FJa7nNkuqDb4cPPo2fr4jbExpnGS8jjFW2EsgJUbMd8RDuHGJ+75tMogFxtMuKwgthZFmFFVNsj+69wmPj7RGwIrgu36Szz7UIw5iMvugpxmS2DGFGshU1WF1yjkyn+Vuor36T8vYNwmMtkVI1WeuJI+UHHFc1gmVMYNyMaF2Je/QpZm/6IPGFjwNqJkoSdj2HxJ9yj0aP/XO68Q/aNjZM2DCSxo6QEBTJyGu6BMQGTVvdHgMtEmocPifdAyMIDqTF5D5Qre8Zp1NbS0pBQsAER/QxcbCD+CTAXjQoFlCC10a1Zor76X3zA5AgQ8Mh1Wo2ygSmq7nVJDlv0sQNBJ9NoqTJJftk6PsLz3xryvQj3w5nRoyOoalb5mXJrG3TpFRLIRCUJigA85rj568in3+GnWhgMmZVNxC1tc6yqTkx/OQAACAASURBVMFsPfjmvIptYLqohHYJUMkZ7YmaEugvfU5JNhtC+nztkY7R5Vw1wuroFuXxEW3Kt1OXO3TFFso5XjEGiCVRhBVbjK+8BT9wPKNRRzRnV0LiNxxeVP9Cn1+zjb5BZTgHIaQwe8ahnRKIEpiHY12+y15JSvBIsyB6Q9lMkOTsW5fC9Q6IDsTim6U63yFFoXMSnZFkOgctRPYRWgGXUJnUZk8SFYMk1EWXgoSwBANFSE6rVec0F9MkoCF4tbj7UcgWdtrqGq7ssPuBpzgyLTtmBM2SqtTmZ74QTFkM0G09bxYVJ9du4b/xEjvFGRiPoFroCkKkbpuUPvAaSynzbaq9wZUtplRqNWlLYkz2nKvB2M7kNyknw4ghSsCKEIbtW0wfhcw9hI63wb/4Inz50+xdej93H7sCk5doWVH4N7IjgXjxPIKooM+gAFwcE556P/bN/z7Xj/45/tZvcmkBlAf46ZRKrrFVNfiipOOfGaQVq3Oqy/Rwuwdr3yDpEjawjYVKRyd5XusrgGHSNViKmlQVpHPOcGBcpaYHAqFQklGRtBBFrC1SRRZE00IQgm2TxgWpS+V0FKOJed4RPMmkEkpNRyUadTSVn0WZlmIAiTPtyZVpwdNIiikgRq77iouyA1G43i6JwXAh7kAQ7vol17jDw3/tJ2DnPBHH8Qy2mTDzcDTy7Iy3kLsL2r2xrmh3VtRntgnzFVf+j2eI5SVlMTupmdmSaLQo5FG7m0iUTt+fhDLlEH/ye3qHct2cEe/ATXB60fmmp98Q6Biwcj2fyULRR0bXOpDlJK9T7y88bJfA85+D4xcYFa9TbT3ZZhyhbdoOzhxuHbvq93yI/U/8Hu6b0O5A2CmIdyzjtoAzDbLMV9UL+fCnQpoEvYB3/5Cu68GCviFVBSM9IqGQan/+ekD6LIXeg2g6bkaulE80DrJOBAnJJ4kpah2ke+5iCeiEcYPUFSs2VXBagqAZgE5var6tHWTi8+rc6hhYo8hNziT1uhJeNGNOwhwXDefLbaKxPBeXbM8jZ/yY+fc/CU89DHsFC0gsBQYJMCtGNKuGcmeKS2fmz8xYtDV77Zjrv/V5ziVTr4/Int4yrtndEf7QHqqJGHEFUSzRWB28LgMxefQivenQ2efS5bxIN7kSAJvey+9X1jGdwfyFT8PLn6Zol9wNO9TsM8rpFKcog4evbzz0Htyb3oPs7+E93GlucVTOiSOnS3Uu/7PpYejfM1GDeZZu/37vP+iRj3ulh9ZqpjHKzwbECpKKT5QBrf+tjq7OxFPHpffc+vl29aZW7v1/J4gTxIG4qB0mXECc6H4ZlT8zBxkzn7uLUCjFSUg03VKEtJwGfZgGCo81NbFewGqO2EixXdLOHMSK0d/6Lto/9wTHY8uKBHWmALtzBRZLZdB7FSLP0eBMAZ/6Cs0zz7GetR9Yy73pim7i+nFy6vUDNkkOtbOuBFv12GiHuvQIAgmzHkYm1RFMWhw6tCUM9gWwxQimJ0yPK6qv/t9w7c9jH3qaBijrGlvaTtsOazLzc8ke1dt/gPHikNGn/jdmt69xcvkmtRtTXB0RZk333QgptjGYNGbwuwOsvd/foLI3FQ+cYhIbLpvKBtsfF6IkypuEgaM2dgyD6xeUNkJUY4sTYtRj8n3JGl4HO5Dx4ZgLhjBglH7C+pTAZUxasS1CC8Hq/zrRoF8MOhFMSu9ohGAi1dQwvR2UgmTiqBcnnL0jNI9f5ub3PcHsg+8inNlLZdCRibUpSzKCMdjScIfICMFXLdfGx7x+ecD1//lnuMJ2H2vtboU6vbplaCndg/sVfmwIKqlH4XHGFURxqtFjGGDp+nuRvBwPwu9Gz0pt4LzgDs5nsD9Jml0OoHr+1+EPfoXdh55m7mEmHmOKe8yWocDv1hBnT8HTPwl3Wra+8j9g2xaRFWFyBuxhuhzSkp5NlfRbpt8fvp9E8YGDlE7iwZ+ftvFj/lpvUoHS7ElKZ41G1ioEJaSbaZJAh3TXU+RFWw+qRuyq32LS6NFDTJHqqNzs0cbuv4IlrcKgHTWipgWgyBUl+t8+gnHK9Y4yp3kfEdeymnrG5RSkoLg65yQazAffxtn//G8Q9w4A2AYIHicWCmi9/o76yR6iIzQtb5yc5fAXf4ubv/N5zk+/Za1HVifkpyudOoE6dUz34StvLZ7SBBxFQYwGT4KBUHMgNzeQmF5DJ+Q5NSA7f51NnrR4kGz/wdZqTiOGYhvctbuEZz5B+Y7vZTV9HMauM1PuV2VPunnliYHpZVbv/3Fk+wUmn/kZ6rvw8oXIhSol+naowinBzmkD94uavopN7kOXtrYN58FQg2eBlxRqj4AE1eqxR0BiTGOancvkfykZUBpMIMfmjdGoKlEjm6TOIB1qJkGTt/JpFFG1fRuI0QEp4U70v11MDQos+DYQsYQoBKOBrcmx5+bZES/PF2w9e4uzO5fZ/uh3Ef729zM/c8BkAaZEKU1iULIqAW8CFjhsI3vOJbdAOHsCn/+ffo6H2NLjN2rsLNiwVvjB8LhX3kIBOINLRp0GHgRNDLLqLEVQAntIsKNq+DjA0TMbgN7Unq8la/qyiSymO0DDdLSAF3+L+nO/SPnuHydODrrCiNM2en4uTE1sYTEuWV16ksL+exTVQ8Sv/zNc+FqPk3fe1ql9m+Vu6JQOhH1jKcsGxycOf0O6fUnOooboUYdQB1CvmTQB8/UmwcsZ3L3JM3jusvPoKUSSppegDqaRFPMwqGmSTJIoghF1crsWmUGFU6IhtK0qvKDRXBGbMnIjs4Xn+GTF4ZVdtn7kQ0z+gx+jfeQyx7fv4kd77CT4M0aNyHrARcH6yNJGDrywIrFwfvwz7Pzas+zbPdSYl3VhB3qtrg58L9Dx1Ovh/v23MHIwdpgOMwTVEpJ/fHAvUySys71lKPxZyLlnX5Ija0Yzbtei69vJbW596VNIc8QiNt1xQ+6UNR6V4Fns3eJo/AIFI9z5b2fxnf8RvOO7ubCsO+c5mNg5fkGBBrquh0JyrgePNBnipgcPfpDqajGKRmVHM+ScoC42cZoMKuUPZbTI5FUNdVy7+EW6uTkNIl1LFyE2pLIktbfFCiaRGUlyVI1JGH1yUG3n1Op3MsVJwBOk0X0biU7gYMrkmZs8Vk954t/6IcJ//MPceGSHRbXizHSfuRUqA9EJlXhWqRDeBoFWtEB6DpUE2hj40v/40zzmt6h9y2J0erU85WC+EpNyroJ6NZuzmiB29J/8zbj9zX8AY3jRb3OljHB0Qr29B8Uc1yacfJBnoq/zswLIWrxB58zmEjjTeprRDrUpmPojZNlwR6bEd//rHHzPT7LaucK4juAnxBHc0mgz52INy7tUpUC0GCmRlMjvfU1Vz2naFfKL349d3GBycpOyjsAYyhKKlkYWFH6MqrrU+Mvq77U+UrcwtdWpQTw9UIPigXVPE4BQP1ij+LDOS5N/okMf0/CmSsSUXCjde2YZ751dqR8pQHC6ikiIRB9yh/nU5xTaahtixLYG24BtjBamturAUu2DeKK0zGPA+8CoDhq+rzy/f/IwB9/2Xg7+0l/EvP/bWFw6zwqt8x35yDRYvINaS18p0UzMCNRERjdP4Owu3Jhz/b//WcLf++ecubGkGO9ysu2YHadr6Wo9DUTXXV8MCS9PjFvad8/2n+f9nmt87fsSLC//xSs4GU9Ygyozf17+WodSDDzcTHdhel7GzpwR0ezCLn0WzTePkUYMZQljAqujb9B89deRd3wUH8Gm5XffBOZxxUlwbE3OU8hxupACkwTdGPXsrLXMvuVjhLv/kvn1f8ryzr/Arm4xlhVOoHAwr1U6dIjAOYOxBhOFURTmVRKqVCElJq6tamVylu4j4wC40YM1yzBD4bSQA8jQF0vP2V6PEY4ng2M7RaZ2OcDW8U76nqSGH8mJDToBWpcaeBlDNI5oLVI4CLr0Pb98lp3RmF27y9aqoFo4mqZgNdmlPLvHW374x+DR18Gb3woXzgAa9C2byESgkibBiPrfsW4RW+jK4hvmZ7cpiRS/8WXOfeLLLG+csNrbwY8Ltq4eEse79xm1AerymrdIuV3i3O5BgiZC4uHwUOg4OeiWTCNGedGTrd7j6L3NrmkD/RIcBfARIx6PoRahHBsmsSXc+X2Wn/sY9vLbGO09DpMxtBV2cZOdkePYXuAF4CHGpF/tLtyIo3BTrBnBm85jqkcZ3/oWmpu/A7e+SHP4OzQnnyVUFdODA3yowS+AJdK2UKe56mE0nUFXEpaKxAdBIFmcSTv0EjrYD03ubHz/Tdp1G3/ofwB9l+vM1ZftrqBpAZORpvFq4lhK4IqRzCkSdk9Ug0fNUYnBgDcp0UuYrI71fL2AN4TG0jSavBWDsPfOK+xc8/DVFl72FJPzLL/1Hcy/70PItz3J+dkVmGxBsUWFVWURYZJyzSksNZFmsaLEYXKn7wZ8HXm5EC7+1pco/v6vIL/9dcZYKucoV8PWMdnZPC3Ym23wjZttGF/cxhVnL+CjTXEPo25/CcGocKeegl2eCajtmZ0eRVrSBCDDj6CZjajf53TBab1RQv7YMpp/lXp1jfrTr4f3fZR47luZ2xHFyjKaOCa0XKuV9SmEQAg6sUyCPwXV8KvRIYwMducdTK+8Cw7vwPUvEG/8Ks3R57n6/GeRaDDRMDGWqfPYXGlVCK7JA546XQ9NFwEvR72QMhDSdJwbPTgXQ0y68Z2TyrpKRzF1JSySpI3TPuCOF+mw/Lmsfc64zbSOxJDQujYFOGOixxNSlmaBMYJxhhDVFLj1z65z99wFpu98mtnb38vkbe9i7+E3ErbOUJkRL07BYRljKYFJB2uif4ihni+JVUO5O6G1cFIFbIStrZLR/BrTn/ok/Oxv4cuS5uwek5fmgIeDfVgMV8QhwpJfv8bN1IwuzXD2/EXmOGZitXet0ZaH3ivOlR0qstY2JIHPwq52j2r5DD/2zXfFAC5SElniaQ24oFWYrjmm+NI/hIMx7F2iLR4h7FxkRIVjxUPSEsOeaquYu5YZTK7yiEKop4RiwUruYEpHeW6X8e6HkYc/TNm0XHrfz0J1BIfXqI9uUB3fpD25i18taOuKczNHjLkktyLEhhCrhDl7gnspyem9qBCwTpB0n60Y9Ek9rc1BqSV72zzNgfRsogYo87yKyXSRJNgA43gWBcocFkMhhfJmoDTTL5upVvPYCa4YY4otpJhi3Qgxjsf+q39Xo6dbJXcnW6zYYsaIsi6YnEAx9RRReds16Y7OFA4m0i5W7BZjmExpDdwlMpcVe5RIazj7X/w8/PxnaThksX8ZM7OMaQDPassyWjb9pL0f+vIat5qa8vIOjrPnWWGZETDGKP5ZCHEFIClpJhdIx8506bpa0PM09g5rr+UbFylEsKxwUhPE0drEvVlAsbrO4ksfpxrtMHn7Xwd3hfncMY5HjGc1sNfVQqpG7x0KMTANBTFss7JTGpS4lFKpoi2w4CM6XJfnmHZOQaNaKWUahpe/nATdE0JDiHUq7vbE6Nlavrw+cqcM7VgvHjjQEuwrG/iAp+3Nl84JNd1+tV3q1QZJgWulBompCmjJGBF10MQUiFGnPYpFxHLp/JtV8G2hXOhFergCjOPr8YgdO2HPjNmL0DaehQ0clpH2wHIO7WBts+2fyaok0CKM3Ejfi3C4OiGOx1wsx4yeu8bdX/8ie//1L3HsGhbb28yqmvLaMUdTC7Fg69YJSj45mLlDrf7HsNXGU17cx7G7T5MS820w+BixpSVUIeGESbByMClDdRlHJzus+t566/SIL6cUBIyvcAaiM6ziCFu2TCYOihaO/gD3uz+FjQ3m0b9CmLwe7w6wHOqNFzA21VXiSW6lajrXIFgmodAkMa/o7Nxew9uXEd6uCVN2RmtnWlY50J5br39Y/4PM0DGwGwEWQ9SFe/ZlA+Xc/b4z3Ldu8P4abqnbqKS/6fHUM+CLE3LKVkYgtEIIwDCN/Vd8gktDfg08drINY4c3hiOJnJSeEDWcPwOapsYAPgaciJqzKQuyALWNPKzmC4z1bBEYXb1F/PivsvpHv4xvb+G3Dii2pmxd17rZk7MTjHGY6w1x3Ffs64Bmrf7HYJ8D4iyc38YxmRG6pq6JATel2/YQ4kB4hQ7fzM4nZEcUhkIuIoRigo/HxEaVSnQG7x0NjnEx4qSYsd1+E24+w+Iz/zvSPsr0Pa+ncpY7J4b9mS71kaDOYnJKQwgEr7a6IiYvI2GOCxOc2WdqLuC5gK0PE9bmUy5HIuw0DqKh8Xm16FWI9JlqHE5Py2dc2zdrn967xTRhTn8vb3VcqfOeAkoGm1w+DTq5RDeRCUgtSnmRz3er3upt2pjvTaJlVgggXZQW0UUJiQkzEIjc3DJYAqO6Zact2bFTCE4LrVcrbu+3WCuUiRajUwYpVaFy0CwqZuMxo7IknBzyzX/6Ccr/85e5+JkXOD5zhol1jBZBYV8XmdWpyfZsnNLNc4DogUP5R9rEWdgGOT6Ksfmpv87+F/8h7B9wO0Qm/jaTEk7qGVuT1C/eDLT5IIARMzljSvrKwY5cwOxN5lfXTD1SklXG4xtjGFnRpSsEmsklVg//BYon/23MxW+jPAnEsaFy2iQ2AMZXjBrPyAdktEUOrxNrsJHWOFoKPDDdEPl8JTrjPyvbpgqpIKkAvg2YTB3e6X1o4gjXBkSWQAOhoiVSj6Y0TNidFxzN4DonuMOvcvG/+wXG/+0vwdGC47c+zOzFChAkOogFEvSZ6CBqnnyHgUebMPD8nLccJc3H9Zh7HJ3BzK+DmXBnNuK4KXnI72CaExpZ8aUfGvH0f/m3ca4As3sA5YTYNpSjgjLJrnM5+WcoDAMhT7YZkJxVnQxZyLuoXzrXbvA7GrmIlyIpolphsvnLyLXPEIp/QnH7BU7e+iOEZoE7qtjGYsZjKEa0YziKkXG1wBJxOdsyOlywOPnjqk35s72pyIji7Hgk6hrtPYQQKGMLYzii5MV2jjHC64pzTBtD+MYtDi9Yxox44tnnCP/Nz7D6+CeZjyNcvkSoKqKRnhm342ZPENEDM0NfpeliIuDAlVgxjF2BMU6DYk7Ye+wS7ICzJYwvPUI9PaBZXGW8PcOKIyxbylIDQF26XA45ZyGHrjmAJG2O0KUJ5DrTLj3ApMBM5o1OYfAgFmtKkJWS+x5+EVPdxX7z11kdBLbHDzGavAnYhxrqCvy4ZVJ4zChpoihJIyhzFT7RwIz/bGvsTdvmFSvBm0ZQ4yZtxmldtW04rmqknPKQOw/A3aMG21acffwM4+NnCb/4BfhffwXz87/NdHHCrUcPCEXL3qKXAxM7cFaxzy59UwYY+tA/enX2eV3XigYFj18lhRciUHEsK/bf9ihMlDQLLj5OtfsQq6MXmJkWnKNetoxtzhTLQq6e3DBARGYBMIM8DJMhx9hHT9Xf1aUq8bNAYCwVRsZqOxfarccEwH8TFtfY/rX/jNHDH4A3fJT27Ic4GQEr2PEthiOWxVkk2Y5u4Dtj8/L7WvkS/oxvyexT8td1UlAjUDeG7XIGHk4OI0jDhW2Dl4a7J1fZ/vlfgJ/+JNWvfh72Z4Q3nWV81DK6eowrt9QCSYXYkpjMABX2COTGBPleZX7HB1Yd9Zv3qcojBkIbKCSAr1iwZLkNZ994TlG4CHDuCfzZJwgvfhr8EooxNcJ4mEyUgkBqq4duInYEHSKDz9Jx9DZ5FvpMQqoFESahHCs8jmDHmKLGmBbxAq1l9NKXqA9vc3jnZfwTX2Trde9nNn4cCRNY7hISiWgb1Ia3BgoDQo2hQXjtleR/prdIFwFqo1fawADiA9FDWVnYgpUDcyYybefwza/jPvVJqt/4DVaf+wqXliN44gx3Ss+JP+Y8I1zhIK4QGSmjcVDnWLwhsy7HkAMHSW7IeejDtN0HC3rhDIQSihLnI2UsgIa6MJRvOoM8pEXIzvuA230Yd/mt8JVdaO7QjoTgpqiA5xNR4Y25JnNQZ9rtZzs554ar6aeBpJyhZwBjkgkTOxvfx5YQHHVUbAFTgi2Z7u9ThCN2bvwcYfVJ7PWnaS98N3HvO2kmb2ZmlkABZtJ1b2uJSOIYKDem4T54+3+7s7qRd2bDJhiIWrBiRXB4bSqXolSHY4uEI3bmd+DoJnzmN1n9X7/A8rc/z9n5EvwO1UNncW7E/vM1+8ctJzuO1b6huLtiajWFQeKAvQ2v8myN1qaucbFnbd4jXw88/zDA3K1DGmioqHYt++94FDkzARNwwQtM9hhdeCOjnTNwcgfvHVKOoT1K9nmysxkKeRho8eFrkpDrv2fTRTphZ6DxoSkiJjhsNFipKX2dcN5AQKi2C0bGaH3p8i71M5/k5IVnkYufZXT2Sbj8BrB74C7h7CWwe0RTEERx9tDZffffzKbQ5v/Ht7ChT6tpjKbkFgJ4LI1CsXUFqwpZfYOdZgWf/U1u/eN/xOHnvsDlyZj9g3NwsAP2IifLY/zNI84whZ1tXBGpm4ptJ4l2I6FxXpXbWtJff6Z0waKuVHxzZDQmAiaKgJgRGMvCV/gzE8r3vgE/FYgRF6NQGyh3LsFsFw6hjRHrxtDOgXrAfZgBW0AGnTCGJk62aaQ/tvtuNqDzDBSoijFFKBhFA7HJ1g5apl5RhRNqDyYWSDGltFDGa/DSx+Clj3H1pQ/ixg9R7j5Fuf8u3M6bKMYXtDuylLSn0mT//7Zt0vhiNVfdp2Bc3Szwd2/T3LpNe3TMwc99jOrF3+Pm9S9SFsc89s5thC2aw8j8uCX4Qw5OLPgpJwcFCwLnjgzjlUsMBNkmj+QKKBG7Xk54D+/6q98K20GElKMxIzNi1ThG+zvwlodBGogBNw1wF2je+ASzJ/8q1dVbSP0cs/2atm0Qq2VaSvcbE2VfP9vEprNNREExFw1kSoxO2Ek4ei5G0K/NYgVSdcURkXWColEKj0frgWNikXWBXuC5+Sfxc/CH/wRevkiYPESYXcFsXYJyG3nkbxFxICOiTIlGGyLmMa79rXR+WvCRAzPJhcbG8YNHekPxdPAP/jwRm63XGAz37YBXZpAakAdQ7BBEzaZgUHzQe25MtynQAGaJFvlbGggNhBZuvwjHd5EbzxNvPE9583m4/hyjGy/SHN+maY9wYrh4rkDa87ASYmMxAbbHgq0ibEVoW7Za2KqdXsw4V8BUkDjc1V8rCN6nS7AY06bcnkjwqghjaFGOc7A5sT5j6FppQoent3fg7GWWN1dMpo8wP/kaUw4p3vsGrr8HDoLBi+AoINQ1k3ILHnmUo+0zjE6egzbQtp7CJfSJkPJbsiDLvdoiafGe9yV0AsMgR0WXrsQIlu/qK/DC0KE7Ofo6XDFQkycY2jpQNzepVgvi8QtEOwVTYr/2OcRarJ1iy21ssYUrZ+AmYBz+4o92/9tXRWVnSFhNNgRcNrRvMfbBOQJVVgR6hd1znh4+teHQqzWYlB0r3RFKUhp9SPZvUBY07/Hec+nLH9Pc9WoFiyP88SEn80Oq+TG+rhgvr+KrChZzXLVk0qxw1QKzWFCsGkJx0BkT0kFaw9ynFJLtVvRh3CUjcXEweXPXDU3UG26S3tMii+4XQAbvRXpjQYC9A5Y3b1MWZ1lc/wZjAidv2GP3u97MVFuGAeC8C8jdGlNO4fVPUT/+FLMvPQ/VLWxJXy6XxnXYPCuXgKUXPS9J2s9C3rWC6TIhGbzuBXmYOqDfozOPcopBtvm7cfMzwONii8Q5Nh4rmWerE362+p1OEYgB7EihTFOCMdRf+g/Xr2fwDFCaBwtq2OAwyYb2JuM6476kfPTQv469r6Pa0fT7oK9jnb6TvhejavOUrhvdBT0PBILHhpattmWr9cQQkNVK03rbdIsNmtI7BVMKoYqaSEZaenIMMSO3BlKxqsqC9arBXdCInU+rv1jILBIxJvoUQ39job+rGW5MrX06jD1B1xmZkcjJeELJCXa2xeLuS2AC/nvfRfWhh9lqatpk2rglDVtGc5NXk4tM3vEdTG49B3c+RbEX8LU6m1pIMRDEfAM6p3NdyIFuEnTMAiJKwtNxxqgzK/QCHQb7WXHn/kqh2x+ofJd+yxissVgJ6876sHVzgBArPJWOf4TJbNIL1f225sE2vtkAf+VKoFfa/CSBT7EXct3X55DC4/qeUtWpqaPvjQQIgRCCYgBRizNCG/EeZHEdkkEGRvPWRblbogijmeawtw34YCGMaEOBx9KGwIFTxMT4oAJs6KFvjwq2CERtxqy0HL6flAadgCZRE5hUBB6jwotpBdBOK9ooTue3ANLlCuV4jdaRZ9tfqG5VbJlzUAfO4nj+YsX5H36au1ueC3W/YjgfK4rpDsuV9mW/+MZvR575PRbXf4fC3MWk5TwQE+cL5EzGIPTxGBkIeRfi7231jkfZ9FBjh8KQtTWdrzpsCNy9zn5spnMD4mQoiMr5HULolvI2jtbSECRpnpz627aLDsqFe+X9ZOeBcroRANuETu5W6aYNUwpj/4ghUbGm/rZdOV2+1yleYkJ/DUmfKMvczlQZHqIQvBCCofGaEBdjZNVM1Ty02cowWLSxg7NJPoepySGovW3Tep3JiqLRhmwBxc3TaiQmTQQxnS+idCYhFfn3WlzEJkGGTNgaxCYtnmlRMnePytXOCuLBBLl9g8gd4nc+xfi9V6iXhwzJc9y4AYqWqvL4hWCmj8Dr3s2dr36Scfv77Jp5J5AyeA6SNXHqYcQp0yUHlcR0GrkTbovelS7S2kuNQN9TifsLfNb8AlSi2X/E1MhKnNqAVkk2J+1Rf/fz/2cjTwTaQVFmvpmD7eDBlXLc01L8ns8fbOPH0qUbmARKetMlxkgMTrW4EQhRKRFD5oERfKj0+8mRNlKqtjco/8t83pPuCxAtY6UCAIzyzEiaKeJVG0uabQLR7vWExJkaL9Fk6M3yibvGg49EYxCbfIUgvX2eKkli9CkOZAY3l3RfMtdk3z2vPyK1BSWk+K2alhO64AAAEUtJREFUM4XMOGxOKDniultx7kffRzWFnWpMHeadInKjUNJKwEyEc3WptX6Pvp3JO7+H+os1NF9I55HMDMl2coYX0w0b2N99e0aSgKYDO2E35GzHNZoM7rXBM6gRu9/KSWPp3tXqJIm0muNsWsSZdGI2kXumgU4mQac9gcO95dpYn96m1b3vDTf7YDlmA4yNrZq+9eTQRO2efX++AWzW6INUkQ5piQE1zAXxUeV1W/N+aCPUyX5vdIXoGjsPV5P0E9oniWRmZj8hroMf0K3e0SSwwvqEojhyCneympSpgEA0Vj8L0AWHkuWQyazy/cn+WzZb+k1nbjvxjJcV83MT5C+9jem3vp45UI4KmrrQDiqAIzruLO8wnexrN/IFmLOv4+DpP8etr34Bjr84cHOTtmV9MmabPCaUpRNck03xoTalE/J8cfmCMpdJZF34809E1rU9wEgmEJMmim3qK0NnUq1M3zpRko0oedYAu3ea/g/yNtgPboOzuUGjW/dg26Ud0E13WbKwLvzJPtcC6JCKRlL+iAkKywWB6DDRqpkSBY/H1MmsSByM1qZSxGgwEVb1ceJjt0RbEMqC1luEEjDsHC5JBbtgEnQ4WBX1HvfpHZg+IBREu6OojTv4jUBC5Gz/W3my3pObNEBcJCC4zhkVEZ4LR7zBjFk8scsjP/nDxG1o6oqXSjhbjDtBkaqeR2dLjHHJeQ+EULOqjlmu5hz8vb9K2P4afusqIjBqZxi/BxzRcIx1ubVLrqSX/i6ZSHDSCXDyedfRmuF15YIP6NEdM6Ccy0IwFESzNs3v2TZGPjdoZG8f7IxuTBFoNvzBIFAiYbBUD5GXNZs9OXz5fZ9MgDwZQug42CVzKibaOfGiIfcgXeg9uwChTehK5nBvFdeWZkSMgvEWagOtUWaDxAsTK6tOqhdoEsFLY5BWGQnivEgsYk5z0b2DplQ7PxpiXWjLmlBAcEQ/hlZL7QiWk2nJRBxFawjLhlXjCZSY0QxXTimPj7nxnovYv/shtv7yW1hSYRZHbJVToi0wosXppuc71HE1xuCcYzQaMR6PKd73Eeb2LPVLMGnATKccSWRZLyhGJJYsTdvNTA1d/stQSQ4EMiYnYQhVDptqrUGYGRZMuTHD/Zz2+6BHv87/UR+vbcsK65UeWlPQX1tMFUK5AFl/JI1L+r1e3efP8+u+52jnJw3ez4zI/Yn1NpLI4P7kzyGZq3mF7lfuXI+YE/a6CS/6WyH9rv5UzmjNwcX+vzoAQ3JocUhxGBhTEO4uCUdLzGhMceEM7M+YRCjngZf3hHMfehsH730LAajqBaWbIHZEteqDbW5I7gk5VmIYlSMdiPd+BHP8FcqbvwvHwGhO6wqKLs2y12rdb3U3QHqzBboyvWzndwGFZId1UGMXlOoh46EpMzzfTRygbPh809df67bx/GIaN0ApjtP4hTgYG5KNS+9UDgUWdIxDLyC5NC8aSfMg9PemC+Akxgaj2YUYtDQwah+kVCwK2TSRqKZfoIuTdBTigS4ugolq+6NKKnNKdozCOfiY4MXcm0qSHxVCSLX3EeYNo0LL+2ITqasW6wqaZkmI12j/8gfgB78FLpA4Hw2FGyk4Yfqotss8h/ofye5LY+ecY7V9kd2nPoJUC5rnfpZ484iDs0BR4Ockoo/+ZjAUdGKnyWOC9jKtnQiKy3dGqX43DvbVvo9r9/P0/ivy83Xbps9f27bRdNlwfl1HDkgQWvYlkjCaZIZklApJTuFAwPWHVIoManrk92Nq5pXzlAJJ+STtGhS9iAa1443T8zBRMfmUAqL/ZZMNjiI1QsdHL8brvc6NfPO5pgCSKqikuY1A9CrgVnFTiX0wSQyE0IJxuFYIVvsgiTfM7i445pCjrZJ48TIX/86fh8d2OXGeiobd0TamjdSrltG0D/Y5k2CNDG+FkJAnkr0e58hjHwDZZe4Dkxd+GhbAFlwtznPBXF9fYkUG6R/D4JF0A5oTvATWgejTmHr3PV5R0jdqzA3bpnnyWtN018yz+/9Dl62sE5sOYem8/pieAwMTL71vQoLukq2eQ/LZRk+KJSVdDI5Pv2l6/7LrQRVVQYXkCOd5p0xmkKOcgHbCGyIFPh1sEipgCyTnlZuoE0eb2iakBohe17IYtCdW+q7EiBk5Xl4dMRLPgT0AIpYK+4E3cvAT30vz9nOcELizPGR3PE0+sqGNLcVg6Nfi02tOXtR8iSmByhXUD7+bsvpxRsVNuP4r1CvB7IyRWu9MpqHLhdDJmCSX3qm5ElNXudgJvhrhSSjSOXS5Lpk1Nn3a24GDk97ka/4JK/xNE2HTz0uC3wQ6rhbVkOmAkPNc0lgG6YW0G2foZkvCriW1Yo9RTY1OmvMKkd7rzEiTAjEZcxTABMXrJdnluZTS+jQxe7O0b4eT2BaiS4ov3WsXiCGdi0kBo5AwfNGcJ21gkFcTQDzL5Ql7B7sEbzi69SJjhOkH38b03/gQix98lBNOmDHmwmSP3Ek1OijF9tVmgMuJRPmmSbKXe3t7h5aW1lkmj78H4k8Qf/88zdGvsss3dHZ33tXAhu6cIlVNmV8dEiFphps6Ryrb7r1S62zDgdCczkd5jQp3UwELwmv7g40TIQ1Bxo87O33wOZIIRDsPlt4zzRo6DIQu7wd6U5GcMJWj2yjebQTCADHL9rpNpkuCDyVEohUt5UrfoTM9s/OchD37AfTn0TvboaMyJDmiMSYGXgnpf3vTqTEVO2Kh8TznWsy/9gSP/OR3wnc/wVE4ZLQKjEuHlRJEqNsaW5baFbNeYkoNCLoclQMYInGCpq1GCmw4YmRWhHKf9vJfIC6F0Teexd19Hl/YtZvZafTBpti7XqDJwi3rwaKhPA0FesiBMpyEf9K295/elovHs9PGwI6BHERJB9B9PHidDuw/T85oKh5aBw3SQtsFF1NaigY6Y/+fqD2dvplwbzU/8BnVSStu11xgsMJkTLzzFaBLE+neUBtNxHXnpotSRESn/M65fcI3v4FHeOjb3o3/O9/D8Q+8gWhaLkSDjGZweKK2yaRM/+wxBEQaQAVd4obM/Mht2mipveYhTF2BqU9YXXuOWy8+x5XPfwQmECZjmtISYsT5QJFxQV+R4cZoDcEZok32mgFnK9Zhrm5suwvv7+W9dvqGdG9yuvwrbsMJdh9uxNdagZQhvnUHeqCxB/0dT7Hd6f9nkzrS8TLm4YpRkMZ2CV/5WROm0jE+KJqRyUk9SlXdfa6/KyG/ry1dJB0vldP/CQZqS2wtMTHzEoS4KvScWgetRWpDaBzS6ufmVl4+HFCCL4jeIk2irj6cEaXhelEwcTvszAs4bMAEmq2S4mrLS/uG1Q++nYv/zg9h3/UYR9SYRcWZ8TbLatlB4tauB5u6KCtsSKYGQgPGWZwrCMr1BKMR4zPnuOAM9eJvUM+fJ5x8haJ+kckYGAGi0WYS41g2SzDq7GYT3g8KF8QIfXOwLChZNvpg0h/KQfwjWB6dFv1XtJ1W1qc3rc6JHYpBVJw6pkTJQX7XH/J/5b6KZV3BrEcvezg5Y/SGoXpq9kdEH4m1gcpjao+rLNQadDouWrZHB1xYWo5v3ubGZMbBw+ewdxvk6ks8++bX8cQPfgg++h3w5FmOUNNm5kqYr5BCXpU8bNTozeoQO5oQpEwpEZERNVpz30AdqF74l6ye/cfYG7/EONzETYEtCCUslnr9zqS6kDwu6dxCOZiF0gcuOlN0TYnfq9HDhmvcEDi9xwI6zZr7p6nR9T/X9zMKmLki1Z7PSV1Ak85voNGDT+IWI7FNRRwhNfnyYLxq6xjpJkd+P3oh080RIlTKqIUXaA2xMcTW6OsgUJd6fCvExiBV1tiW6GEZp0gLpjXYylA0FrxGPYmWRdXia8P26Cy4i3BjyfH1G9y+uMPkba8n/s0Pc+F974ArW6xKOGxX7Lmx1hAfLWhm2tXQGLN2r3LDt/zeRo3u7AiRspMHDywxFJQ4LMfljNmj30cx2aJ94Syr65+CxbMU8zlFA9M4SvUU2etPzkrmEZHFQICzc0MXNOIVBKRHGzZcwKbWz3mL/QSLcTjZ/mQ1ezehe598bb97nYcisn5gJm/q9Li20OyYeU8tD6e131oiVX69dkBOulLvNX+eAYdIi2p4QcSklUUDgSKG2RINOjWeWLXUrWHla1YITYQrozOwNcPfXLL8xmcAx/SNT1P+m9/F0fc+yZknH6cGjpuGZtUyGZdd8ivTcQeFrwURk5APldZGjc4AtYqkRLjQEEKLRE+12mI8gbFrse3LNNc/S/P8rxFf/gwcfpPZzgs6WDZosWxhwJUEW9Jaiwt3BycZBqkCOjGC6Y3s++W7bMLRo3+wkW7CKY19yk5/zTj6fQJe67bZ/TV6l5IxzGSM0JVddRo9f64CH1P+eO6DFFvJUHVvoyeNToyqwaF/P2vqnBdfp/9sjeagNIboTd8DqbFqtTSO2BqkMoRWNTpBqOcG1wq2tkn7j4CC1ha04gg3a0ZzoV1Zjvb28O9/J9sf+Q6mH3iacG6LFdrv1FlNMxOgbZQ4tSxKGEzSfgx7IX/VGh0BH7Q6RIxV88M4mqCdkM+Ud1iFMUdhgnEPM7v8MNPtt8Lub8ONZ1nd/V8U4Jc5xCUxeloaGjvHW9imGKAsAw3e2eZrlzB4rRNhoxhuOqDLA15Xqa9VwPttw4pwSqV3iloGn3dvxPto9MG5d+OTItBRtWq+nm6VXPv7dY3O8PkeHZhC9z4gRkmPut5W0iJSdGkAkiK7N857RkthehQ1V6rRhC3nCpwpYW64e26L+J3v4dxf+X54x7fQSMvtuqKsKkwjbI3KtTiZKUo8Wi07foX7dPo6Nwq6zxeItmcBMFEwYpGiBFkwxlOvTghmTFs63Pbr4U2X4dE51dfOYJvbmOo5TP1V8M8TuQF+jglBmQHWTi7d1FM2+tqNH24b5GiTxu8+Pm0z/Gk7o4P/vOfvRU7DT+vCn03CbvGKr/C14WDGe8fyfq+7JLM4MF8GzmhOVcgOKQMzSoQzhYWVJ/qGk7ahEUMzmVJvjwmTGY9++APsffc7Wb3/jbwwK9ltPdux5Mx2ycvtnEs2sTZUgca3FONC20oCNq5fw+nGzGuXssl0aQlEWmxEMfAAvvEY4xDnWPjbjG2KcIVIaIUTmbJwY1qBsx5cA+7wy3D0G3D827D6A/BXIc7x7qXBDRhm0aXnNTqH0zeLjYK+kcDHn5rr98P4XsO2yRm99wtx+NSZIGq6xAR6D0yXNtnQMXYJlzH08hnbpJ4GpgsD0wUvvalzX9MlCXI2VxqrJoxPOS1N7E2Y1kLl1Clt0+fPv5g69G7B7mV47M3w1FPw5FvhoSscPvkU+IaRLxmVE5oI87qmkMCsHCMeqkq963KsE6ypayRCUZa9Qtxgam620TdsfkPhwUpMQlE9NrbQzAnVCWG1wDc17vrHWa6+jDHP4ngJvzykwFA6S1PPafe3sKbBxRNiUARBCkBQdKHayXdRDVGJIJ6uuKPOiT0ZvogMVF9fgfQKW9wA69zLOHVq61gShl8avkjmx+m/yYKa5vk6hm6SoBsk57vnbnV+sI8htnEg6KLCmoU5RqL3naAr36X0OHoUqBtaSpAxzgOrJXEVqO02fnSW6eFXYK6UndYDzYi4sLSVQbzl5vf/p5R7u4wfvoS7fBkuXsDvbhMmMwIw2VA87ox94OevdvsTF/RWTPLJwdJCpjxrE4FOOAdVDfZF4A6cHEKogIq4uoMc/y5IDe1dqG5De9zBD77x2MnX6HAyifTd5ZIArVEUD57zytFuEPQNw/OvVtBBmqzxe0Efwo+xlfsLev7dNmWshuyMQvQJXoxAbQmMganynK9qhTSLA+L4HNXTP6pdQ4oZk+3zuJ2LMN6D0Q64EXBNW2tOJ1AW2vbEuI67Pv4pCfr/A5AXDytX0SDCAAAAAElFTkSuQmCC;" vertex="1" parent="1">
          <mxGeometry x="710" y="352" width="60" height="60" as="geometry" />
        </mxCell>
      </root>
    </mxGraphModel>
  </diagram>
</mxfile>
